<mxfile host="app.diagrams.net" modified="2023-02-20T08:45:14.823Z" agent="5.0 (Macintosh; Intel Mac OS X 10_15_7) AppleWebKit/537.36 (KHTML, like Gecko) Chrome/110.0.0.0 Safari/537.36" etag="4bQ5vI6uuPhCOODjZJo8" version="20.8.20" type="github">
  <diagram id="C5RBs43oDa-KdzZeNtuy" name="Page-1">
    <mxGraphModel dx="3781" dy="1112" grid="1" gridSize="10" guides="1" tooltips="1" connect="1" arrows="1" fold="1" page="1" pageScale="1" pageWidth="827" pageHeight="1169" math="0" shadow="0">
      <root>
        <mxCell id="WIyWlLk6GJQsqaUBKTNV-0" />
        <mxCell id="WIyWlLk6GJQsqaUBKTNV-1" parent="WIyWlLk6GJQsqaUBKTNV-0" />
        <mxCell id="m1Vat-lX78rlXvC73KTk-0" value="[UNIONED] psc_metrics" style="shape=table;startSize=30;container=1;collapsible=0;childLayout=tableLayout;fixedRows=1;rowLines=0;fontStyle=1;strokeColor=default;fontSize=16;verticalAlign=middle;" parent="WIyWlLk6GJQsqaUBKTNV-1" vertex="1">
          <mxGeometry x="162.5" y="585" width="437.5" height="525" as="geometry" />
        </mxCell>
        <mxCell id="m1Vat-lX78rlXvC73KTk-1" value="" style="shape=tableRow;horizontal=0;startSize=0;swimlaneHead=0;swimlaneBody=0;top=0;left=0;bottom=0;right=0;collapsible=0;dropTarget=0;fillColor=none;points=[[0,0.5],[1,0.5]];portConstraint=eastwest;strokeColor=inherit;fontSize=16;" parent="m1Vat-lX78rlXvC73KTk-0" vertex="1">
          <mxGeometry y="30" width="437.5" height="35" as="geometry" />
        </mxCell>
        <mxCell id="m1Vat-lX78rlXvC73KTk-2" value="1" style="shape=partialRectangle;html=1;whiteSpace=wrap;connectable=0;fillColor=none;top=0;left=0;bottom=0;right=0;overflow=hidden;pointerEvents=1;strokeColor=inherit;fontSize=16;" parent="m1Vat-lX78rlXvC73KTk-1" vertex="1">
          <mxGeometry width="75" height="35" as="geometry">
            <mxRectangle width="75" height="35" as="alternateBounds" />
          </mxGeometry>
        </mxCell>
        <mxCell id="m1Vat-lX78rlXvC73KTk-3" value="metric_name &lt;span style=&quot;white-space: pre;&quot;&gt; &lt;/span&gt;&lt;span style=&quot;white-space: pre;&quot;&gt; &lt;span style=&quot;white-space: pre;&quot;&gt; &lt;/span&gt;&lt;/span&gt;: &lt;i&gt;&lt;font color=&quot;#666666&quot; style=&quot;font-size: 14px;&quot;&gt;character varying(200)&lt;/font&gt;&lt;/i&gt;" style="shape=partialRectangle;html=1;whiteSpace=wrap;connectable=0;fillColor=none;top=0;left=0;bottom=0;right=0;align=left;spacingLeft=6;overflow=hidden;strokeColor=inherit;fontSize=16;" parent="m1Vat-lX78rlXvC73KTk-1" vertex="1">
          <mxGeometry x="75" width="363" height="35" as="geometry">
            <mxRectangle width="363" height="35" as="alternateBounds" />
          </mxGeometry>
        </mxCell>
        <mxCell id="m1Vat-lX78rlXvC73KTk-4" value="" style="shape=tableRow;horizontal=0;startSize=0;swimlaneHead=0;swimlaneBody=0;top=0;left=0;bottom=0;right=0;collapsible=0;dropTarget=0;fillColor=none;points=[[0,0.5],[1,0.5]];portConstraint=eastwest;strokeColor=inherit;fontSize=16;" parent="m1Vat-lX78rlXvC73KTk-0" vertex="1">
          <mxGeometry y="65" width="437.5" height="30" as="geometry" />
        </mxCell>
        <mxCell id="m1Vat-lX78rlXvC73KTk-5" value="2" style="shape=partialRectangle;html=1;whiteSpace=wrap;connectable=0;fillColor=none;top=0;left=0;bottom=0;right=0;overflow=hidden;strokeColor=inherit;fontSize=16;" parent="m1Vat-lX78rlXvC73KTk-4" vertex="1">
          <mxGeometry width="75" height="30" as="geometry">
            <mxRectangle width="75" height="30" as="alternateBounds" />
          </mxGeometry>
        </mxCell>
        <mxCell id="m1Vat-lX78rlXvC73KTk-6" value="program &lt;span style=&quot;white-space: pre;&quot;&gt; &lt;/span&gt;&lt;span style=&quot;white-space: pre;&quot;&gt; &lt;/span&gt;&lt;span style=&quot;white-space: pre;&quot;&gt; &lt;/span&gt;&lt;span style=&quot;white-space: pre;&quot;&gt; &lt;/span&gt;: &lt;font color=&quot;#666666&quot; style=&quot;font-size: 14px;&quot;&gt;&lt;i&gt;character varying(100)&lt;/i&gt;&lt;/font&gt;" style="shape=partialRectangle;html=1;whiteSpace=wrap;connectable=0;fillColor=none;top=0;left=0;bottom=0;right=0;align=left;spacingLeft=6;overflow=hidden;strokeColor=inherit;fontSize=16;" parent="m1Vat-lX78rlXvC73KTk-4" vertex="1">
          <mxGeometry x="75" width="363" height="30" as="geometry">
            <mxRectangle width="363" height="30" as="alternateBounds" />
          </mxGeometry>
        </mxCell>
        <mxCell id="m1Vat-lX78rlXvC73KTk-148" value="" style="shape=tableRow;horizontal=0;startSize=0;swimlaneHead=0;swimlaneBody=0;top=0;left=0;bottom=0;right=0;collapsible=0;dropTarget=0;fillColor=none;points=[[0,0.5],[1,0.5]];portConstraint=eastwest;strokeColor=inherit;fontSize=16;" parent="m1Vat-lX78rlXvC73KTk-0" vertex="1">
          <mxGeometry y="95" width="437.5" height="30" as="geometry" />
        </mxCell>
        <mxCell id="m1Vat-lX78rlXvC73KTk-149" value="3" style="shape=partialRectangle;html=1;whiteSpace=wrap;connectable=0;fillColor=none;top=0;left=0;bottom=0;right=0;overflow=hidden;strokeColor=inherit;fontSize=16;" parent="m1Vat-lX78rlXvC73KTk-148" vertex="1">
          <mxGeometry width="75" height="30" as="geometry">
            <mxRectangle width="75" height="30" as="alternateBounds" />
          </mxGeometry>
        </mxCell>
        <mxCell id="m1Vat-lX78rlXvC73KTk-150" value="date_aggregation &lt;span style=&quot;white-space: pre;&quot;&gt; &lt;/span&gt;&lt;span style=&quot;white-space: pre;&quot;&gt; &lt;/span&gt;: &lt;i&gt;&lt;font color=&quot;#666666&quot; style=&quot;font-size: 14px;&quot;&gt;character varying(64)&lt;/font&gt;&lt;/i&gt;" style="shape=partialRectangle;html=1;whiteSpace=wrap;connectable=0;fillColor=none;top=0;left=0;bottom=0;right=0;align=left;spacingLeft=6;overflow=hidden;strokeColor=inherit;fontSize=16;" parent="m1Vat-lX78rlXvC73KTk-148" vertex="1">
          <mxGeometry x="75" width="363" height="30" as="geometry">
            <mxRectangle width="363" height="30" as="alternateBounds" />
          </mxGeometry>
        </mxCell>
        <mxCell id="m1Vat-lX78rlXvC73KTk-145" value="" style="shape=tableRow;horizontal=0;startSize=0;swimlaneHead=0;swimlaneBody=0;top=0;left=0;bottom=0;right=0;collapsible=0;dropTarget=0;fillColor=none;points=[[0,0.5],[1,0.5]];portConstraint=eastwest;strokeColor=inherit;fontSize=16;" parent="m1Vat-lX78rlXvC73KTk-0" vertex="1">
          <mxGeometry y="125" width="437.5" height="30" as="geometry" />
        </mxCell>
        <mxCell id="m1Vat-lX78rlXvC73KTk-146" value="4" style="shape=partialRectangle;html=1;whiteSpace=wrap;connectable=0;fillColor=none;top=0;left=0;bottom=0;right=0;overflow=hidden;strokeColor=inherit;fontSize=16;" parent="m1Vat-lX78rlXvC73KTk-145" vertex="1">
          <mxGeometry width="75" height="30" as="geometry">
            <mxRectangle width="75" height="30" as="alternateBounds" />
          </mxGeometry>
        </mxCell>
        <mxCell id="m1Vat-lX78rlXvC73KTk-147" value="period_ending_date&amp;nbsp;&lt;span style=&quot;white-space: pre;&quot;&gt; &lt;/span&gt;&lt;span style=&quot;white-space: pre;&quot;&gt; &lt;/span&gt;&lt;span style=&quot;white-space: pre;&quot;&gt; &lt;/span&gt;: &lt;i&gt;&lt;font color=&quot;#666666&quot; style=&quot;font-size: 14px;&quot;&gt;date&lt;/font&gt;&lt;/i&gt;" style="shape=partialRectangle;html=1;whiteSpace=wrap;connectable=0;fillColor=none;top=0;left=0;bottom=0;right=0;align=left;spacingLeft=6;overflow=hidden;strokeColor=inherit;fontSize=16;" parent="m1Vat-lX78rlXvC73KTk-145" vertex="1">
          <mxGeometry x="75" width="363" height="30" as="geometry">
            <mxRectangle width="363" height="30" as="alternateBounds" />
          </mxGeometry>
        </mxCell>
        <mxCell id="m1Vat-lX78rlXvC73KTk-142" value="" style="shape=tableRow;horizontal=0;startSize=0;swimlaneHead=0;swimlaneBody=0;top=0;left=0;bottom=0;right=0;collapsible=0;dropTarget=0;fillColor=none;points=[[0,0.5],[1,0.5]];portConstraint=eastwest;strokeColor=inherit;fontSize=16;" parent="m1Vat-lX78rlXvC73KTk-0" vertex="1">
          <mxGeometry y="155" width="437.5" height="30" as="geometry" />
        </mxCell>
        <mxCell id="m1Vat-lX78rlXvC73KTk-143" value="5" style="shape=partialRectangle;html=1;whiteSpace=wrap;connectable=0;fillColor=none;top=0;left=0;bottom=0;right=0;overflow=hidden;strokeColor=inherit;fontSize=16;" parent="m1Vat-lX78rlXvC73KTk-142" vertex="1">
          <mxGeometry width="75" height="30" as="geometry">
            <mxRectangle width="75" height="30" as="alternateBounds" />
          </mxGeometry>
        </mxCell>
        <mxCell id="m1Vat-lX78rlXvC73KTk-144" value="marketplace_id &lt;span style=&quot;white-space: pre;&quot;&gt; &lt;/span&gt;&lt;span style=&quot;white-space: pre;&quot;&gt; &lt;/span&gt;:&lt;font color=&quot;#666666&quot;&gt; &lt;font style=&quot;font-size: 14px;&quot;&gt;&lt;i&gt;integer&lt;/i&gt;&lt;/font&gt;&lt;/font&gt;" style="shape=partialRectangle;html=1;whiteSpace=wrap;connectable=0;fillColor=none;top=0;left=0;bottom=0;right=0;align=left;spacingLeft=6;overflow=hidden;strokeColor=inherit;fontSize=16;" parent="m1Vat-lX78rlXvC73KTk-142" vertex="1">
          <mxGeometry x="75" width="363" height="30" as="geometry">
            <mxRectangle width="363" height="30" as="alternateBounds" />
          </mxGeometry>
        </mxCell>
        <mxCell id="m1Vat-lX78rlXvC73KTk-139" value="" style="shape=tableRow;horizontal=0;startSize=0;swimlaneHead=0;swimlaneBody=0;top=0;left=0;bottom=0;right=0;collapsible=0;dropTarget=0;fillColor=none;points=[[0,0.5],[1,0.5]];portConstraint=eastwest;strokeColor=inherit;fontSize=16;" parent="m1Vat-lX78rlXvC73KTk-0" vertex="1">
          <mxGeometry y="185" width="437.5" height="30" as="geometry" />
        </mxCell>
        <mxCell id="m1Vat-lX78rlXvC73KTk-140" value="6" style="shape=partialRectangle;html=1;whiteSpace=wrap;connectable=0;fillColor=none;top=0;left=0;bottom=0;right=0;overflow=hidden;strokeColor=inherit;fontSize=16;" parent="m1Vat-lX78rlXvC73KTk-139" vertex="1">
          <mxGeometry width="75" height="30" as="geometry">
            <mxRectangle width="75" height="30" as="alternateBounds" />
          </mxGeometry>
        </mxCell>
        <mxCell id="m1Vat-lX78rlXvC73KTk-141" value="region_id &lt;span style=&quot;white-space: pre;&quot;&gt; &lt;span style=&quot;white-space: pre;&quot;&gt; &lt;/span&gt;&lt;span style=&quot;white-space: pre;&quot;&gt; &lt;/span&gt;&lt;/span&gt;: &lt;i&gt;&lt;font color=&quot;#666666&quot; style=&quot;font-size: 14px;&quot;&gt;integer&lt;/font&gt;&lt;/i&gt;" style="shape=partialRectangle;html=1;whiteSpace=wrap;connectable=0;fillColor=none;top=0;left=0;bottom=0;right=0;align=left;spacingLeft=6;overflow=hidden;strokeColor=inherit;fontSize=16;" parent="m1Vat-lX78rlXvC73KTk-139" vertex="1">
          <mxGeometry x="75" width="363" height="30" as="geometry">
            <mxRectangle width="363" height="30" as="alternateBounds" />
          </mxGeometry>
        </mxCell>
        <mxCell id="m1Vat-lX78rlXvC73KTk-151" value="" style="shape=tableRow;horizontal=0;startSize=0;swimlaneHead=0;swimlaneBody=0;top=0;left=0;bottom=0;right=0;collapsible=0;dropTarget=0;fillColor=none;points=[[0,0.5],[1,0.5]];portConstraint=eastwest;strokeColor=inherit;fontSize=16;" parent="m1Vat-lX78rlXvC73KTk-0" vertex="1">
          <mxGeometry y="215" width="437.5" height="30" as="geometry" />
        </mxCell>
        <mxCell id="m1Vat-lX78rlXvC73KTk-152" value="7" style="shape=partialRectangle;html=1;whiteSpace=wrap;connectable=0;fillColor=none;top=0;left=0;bottom=0;right=0;overflow=hidden;strokeColor=inherit;fontSize=16;" parent="m1Vat-lX78rlXvC73KTk-151" vertex="1">
          <mxGeometry width="75" height="30" as="geometry">
            <mxRectangle width="75" height="30" as="alternateBounds" />
          </mxGeometry>
        </mxCell>
        <mxCell id="m1Vat-lX78rlXvC73KTk-153" value="product_type &lt;span style=&quot;white-space: pre;&quot;&gt; &lt;/span&gt;&lt;span style=&quot;white-space: pre;&quot;&gt; &lt;/span&gt;&lt;span style=&quot;white-space: pre;&quot;&gt; &lt;/span&gt;&lt;font color=&quot;#666666&quot;&gt;:&amp;nbsp;&lt;i style=&quot;border-color: var(--border-color);&quot;&gt;&lt;font style=&quot;border-color: var(--border-color); font-size: 14px;&quot;&gt;character varying(200)&lt;/font&gt;&lt;/i&gt;&lt;/font&gt;" style="shape=partialRectangle;html=1;whiteSpace=wrap;connectable=0;fillColor=none;top=0;left=0;bottom=0;right=0;align=left;spacingLeft=6;overflow=hidden;strokeColor=inherit;fontSize=16;" parent="m1Vat-lX78rlXvC73KTk-151" vertex="1">
          <mxGeometry x="75" width="363" height="30" as="geometry">
            <mxRectangle width="363" height="30" as="alternateBounds" />
          </mxGeometry>
        </mxCell>
        <mxCell id="N6KDKI8sEQOp6_uf5EsT-6" value="" style="shape=tableRow;horizontal=0;startSize=0;swimlaneHead=0;swimlaneBody=0;top=0;left=0;bottom=0;right=0;collapsible=0;dropTarget=0;fillColor=none;points=[[0,0.5],[1,0.5]];portConstraint=eastwest;strokeColor=inherit;fontSize=16;" vertex="1" parent="m1Vat-lX78rlXvC73KTk-0">
          <mxGeometry y="245" width="437.5" height="30" as="geometry" />
        </mxCell>
        <mxCell id="N6KDKI8sEQOp6_uf5EsT-7" value="8" style="shape=partialRectangle;html=1;whiteSpace=wrap;connectable=0;fillColor=none;top=0;left=0;bottom=0;right=0;overflow=hidden;strokeColor=inherit;fontSize=16;" vertex="1" parent="N6KDKI8sEQOp6_uf5EsT-6">
          <mxGeometry width="75" height="30" as="geometry">
            <mxRectangle width="75" height="30" as="alternateBounds" />
          </mxGeometry>
        </mxCell>
        <mxCell id="N6KDKI8sEQOp6_uf5EsT-8" value="gl_group &lt;span style=&quot;white-space: pre;&quot;&gt; &lt;/span&gt;&lt;span style=&quot;white-space: pre;&quot;&gt; &lt;/span&gt;&lt;span style=&quot;white-space: pre;&quot;&gt; &lt;/span&gt;&lt;span style=&quot;white-space: pre;&quot;&gt; &lt;/span&gt;&lt;font color=&quot;#666666&quot; style=&quot;font-size: 14px;&quot;&gt;: &lt;font style=&quot;&quot;&gt;&lt;i style=&quot;&quot;&gt;integer&lt;/i&gt;&lt;/font&gt;&lt;/font&gt;" style="shape=partialRectangle;html=1;whiteSpace=wrap;connectable=0;fillColor=none;top=0;left=0;bottom=0;right=0;align=left;spacingLeft=6;overflow=hidden;strokeColor=inherit;fontSize=16;" vertex="1" parent="N6KDKI8sEQOp6_uf5EsT-6">
          <mxGeometry x="75" width="363" height="30" as="geometry">
            <mxRectangle width="363" height="30" as="alternateBounds" />
          </mxGeometry>
        </mxCell>
        <mxCell id="N6KDKI8sEQOp6_uf5EsT-9" value="" style="shape=tableRow;horizontal=0;startSize=0;swimlaneHead=0;swimlaneBody=0;top=0;left=0;bottom=0;right=0;collapsible=0;dropTarget=0;fillColor=none;points=[[0,0.5],[1,0.5]];portConstraint=eastwest;strokeColor=inherit;fontSize=16;" vertex="1" parent="m1Vat-lX78rlXvC73KTk-0">
          <mxGeometry y="275" width="437.5" height="30" as="geometry" />
        </mxCell>
        <mxCell id="N6KDKI8sEQOp6_uf5EsT-10" value="9" style="shape=partialRectangle;html=1;whiteSpace=wrap;connectable=0;fillColor=none;top=0;left=0;bottom=0;right=0;overflow=hidden;strokeColor=inherit;fontSize=16;" vertex="1" parent="N6KDKI8sEQOp6_uf5EsT-9">
          <mxGeometry width="75" height="30" as="geometry">
            <mxRectangle width="75" height="30" as="alternateBounds" />
          </mxGeometry>
        </mxCell>
        <mxCell id="N6KDKI8sEQOp6_uf5EsT-11" value="seller_reporting_country&amp;nbsp;&lt;span style=&quot;&quot;&gt;&amp;nbsp;:&amp;nbsp;&lt;/span&gt;&lt;span style=&quot;&quot;&gt;&lt;/span&gt;&lt;span style=&quot;&quot;&gt;&lt;/span&gt;&lt;span style=&quot;&quot;&gt;&lt;/span&gt;&lt;i style=&quot;border-color: var(--border-color);&quot;&gt;&lt;font style=&quot;border-color: var(--border-color); font-size: 14px;&quot; color=&quot;#666666&quot;&gt;character varying(64)&lt;/font&gt;&lt;/i&gt;" style="shape=partialRectangle;html=1;whiteSpace=wrap;connectable=0;fillColor=none;top=0;left=0;bottom=0;right=0;align=left;spacingLeft=6;overflow=hidden;strokeColor=inherit;fontSize=16;" vertex="1" parent="N6KDKI8sEQOp6_uf5EsT-9">
          <mxGeometry x="75" width="363" height="30" as="geometry">
            <mxRectangle width="363" height="30" as="alternateBounds" />
          </mxGeometry>
        </mxCell>
        <mxCell id="m1Vat-lX78rlXvC73KTk-154" value="" style="shape=tableRow;horizontal=0;startSize=0;swimlaneHead=0;swimlaneBody=0;top=0;left=0;bottom=0;right=0;collapsible=0;dropTarget=0;fillColor=none;points=[[0,0.5],[1,0.5]];portConstraint=eastwest;strokeColor=inherit;fontSize=16;" parent="m1Vat-lX78rlXvC73KTk-0" vertex="1">
          <mxGeometry y="305" width="437.5" height="30" as="geometry" />
        </mxCell>
        <mxCell id="m1Vat-lX78rlXvC73KTk-155" value="10" style="shape=partialRectangle;html=1;whiteSpace=wrap;connectable=0;fillColor=none;top=0;left=0;bottom=0;right=0;overflow=hidden;strokeColor=inherit;fontSize=16;" parent="m1Vat-lX78rlXvC73KTk-154" vertex="1">
          <mxGeometry width="75" height="30" as="geometry">
            <mxRectangle width="75" height="30" as="alternateBounds" />
          </mxGeometry>
        </mxCell>
        <mxCell id="m1Vat-lX78rlXvC73KTk-156" value="product_line&amp;nbsp;&lt;span style=&quot;&quot;&gt;&amp;nbsp;:&amp;nbsp;&lt;/span&gt;&lt;span style=&quot;&quot;&gt;&lt;/span&gt;&lt;span style=&quot;&quot;&gt;&lt;/span&gt;&lt;span style=&quot;&quot;&gt;&lt;/span&gt;&lt;i style=&quot;border-color: var(--border-color);&quot;&gt;&lt;font style=&quot;border-color: var(--border-color); font-size: 14px;&quot; color=&quot;#666666&quot;&gt;character varying(100)&lt;/font&gt;&lt;/i&gt;" style="shape=partialRectangle;html=1;whiteSpace=wrap;connectable=0;fillColor=none;top=0;left=0;bottom=0;right=0;align=left;spacingLeft=6;overflow=hidden;strokeColor=inherit;fontSize=16;" parent="m1Vat-lX78rlXvC73KTk-154" vertex="1">
          <mxGeometry x="75" width="363" height="30" as="geometry">
            <mxRectangle width="363" height="30" as="alternateBounds" />
          </mxGeometry>
        </mxCell>
        <mxCell id="m1Vat-lX78rlXvC73KTk-157" value="" style="shape=tableRow;horizontal=0;startSize=0;swimlaneHead=0;swimlaneBody=0;top=0;left=0;bottom=0;right=0;collapsible=0;dropTarget=0;fillColor=none;points=[[0,0.5],[1,0.5]];portConstraint=eastwest;strokeColor=inherit;fontSize=16;" parent="m1Vat-lX78rlXvC73KTk-0" vertex="1">
          <mxGeometry y="335" width="437.5" height="40" as="geometry" />
        </mxCell>
        <mxCell id="m1Vat-lX78rlXvC73KTk-158" value="11" style="shape=partialRectangle;html=1;whiteSpace=wrap;connectable=0;fillColor=none;top=0;left=0;bottom=0;right=0;overflow=hidden;strokeColor=inherit;fontSize=16;" parent="m1Vat-lX78rlXvC73KTk-157" vertex="1">
          <mxGeometry width="75" height="40" as="geometry">
            <mxRectangle width="75" height="40" as="alternateBounds" />
          </mxGeometry>
        </mxCell>
        <mxCell id="m1Vat-lX78rlXvC73KTk-159" value="business_type &lt;span style=&quot;white-space: pre;&quot;&gt; &lt;/span&gt;&lt;span style=&quot;white-space: pre;&quot;&gt; &lt;/span&gt;&lt;font color=&quot;#666666&quot;&gt;:&amp;nbsp;&lt;i style=&quot;border-color: var(--border-color);&quot;&gt;&lt;font style=&quot;border-color: var(--border-color); font-size: 14px;&quot;&gt;character varying(100)&lt;/font&gt;&lt;/i&gt;&lt;/font&gt;" style="shape=partialRectangle;html=1;whiteSpace=wrap;connectable=0;fillColor=none;top=0;left=0;bottom=0;right=0;align=left;spacingLeft=6;overflow=hidden;strokeColor=inherit;fontSize=16;" parent="m1Vat-lX78rlXvC73KTk-157" vertex="1">
          <mxGeometry x="75" width="363" height="40" as="geometry">
            <mxRectangle width="363" height="40" as="alternateBounds" />
          </mxGeometry>
        </mxCell>
        <mxCell id="m1Vat-lX78rlXvC73KTk-160" value="" style="shape=tableRow;horizontal=0;startSize=0;swimlaneHead=0;swimlaneBody=0;top=0;left=0;bottom=0;right=0;collapsible=0;dropTarget=0;fillColor=none;points=[[0,0.5],[1,0.5]];portConstraint=eastwest;strokeColor=inherit;fontSize=16;" parent="m1Vat-lX78rlXvC73KTk-0" vertex="1">
          <mxGeometry y="375" width="437.5" height="30" as="geometry" />
        </mxCell>
        <mxCell id="m1Vat-lX78rlXvC73KTk-161" value="12" style="shape=partialRectangle;html=1;whiteSpace=wrap;connectable=0;fillColor=none;top=0;left=0;bottom=0;right=0;overflow=hidden;strokeColor=inherit;fontSize=16;" parent="m1Vat-lX78rlXvC73KTk-160" vertex="1">
          <mxGeometry width="75" height="30" as="geometry">
            <mxRectangle width="75" height="30" as="alternateBounds" />
          </mxGeometry>
        </mxCell>
        <mxCell id="m1Vat-lX78rlXvC73KTk-162" value="metric_measure &lt;span style=&quot;white-space: pre;&quot;&gt; &lt;/span&gt;&lt;span style=&quot;white-space: pre;&quot;&gt; &lt;/span&gt;&lt;font color=&quot;#666666&quot;&gt;: &lt;i style=&quot;border-color: var(--border-color);&quot;&gt;&lt;font style=&quot;border-color: var(--border-color); font-size: 14px;&quot;&gt;character varying(100)&lt;/font&gt;&lt;/i&gt;&lt;/font&gt;" style="shape=partialRectangle;html=1;whiteSpace=wrap;connectable=0;fillColor=none;top=0;left=0;bottom=0;right=0;align=left;spacingLeft=6;overflow=hidden;strokeColor=inherit;fontSize=16;" parent="m1Vat-lX78rlXvC73KTk-160" vertex="1">
          <mxGeometry x="75" width="363" height="30" as="geometry">
            <mxRectangle width="363" height="30" as="alternateBounds" />
          </mxGeometry>
        </mxCell>
        <mxCell id="m1Vat-lX78rlXvC73KTk-163" value="" style="shape=tableRow;horizontal=0;startSize=0;swimlaneHead=0;swimlaneBody=0;top=0;left=0;bottom=0;right=0;collapsible=0;dropTarget=0;fillColor=none;points=[[0,0.5],[1,0.5]];portConstraint=eastwest;strokeColor=inherit;fontSize=16;" parent="m1Vat-lX78rlXvC73KTk-0" vertex="1">
          <mxGeometry y="405" width="437.5" height="30" as="geometry" />
        </mxCell>
        <mxCell id="m1Vat-lX78rlXvC73KTk-164" value="13" style="shape=partialRectangle;html=1;whiteSpace=wrap;connectable=0;fillColor=none;top=0;left=0;bottom=0;right=0;overflow=hidden;strokeColor=inherit;fontSize=16;" parent="m1Vat-lX78rlXvC73KTk-163" vertex="1">
          <mxGeometry width="75" height="30" as="geometry">
            <mxRectangle width="75" height="30" as="alternateBounds" />
          </mxGeometry>
        </mxCell>
        <mxCell id="m1Vat-lX78rlXvC73KTk-165" value="metric_numerator &lt;span style=&quot;white-space: pre;&quot;&gt; &lt;/span&gt;&lt;span style=&quot;white-space: pre;&quot;&gt; &lt;/span&gt;&lt;font color=&quot;#666666&quot;&gt;: &lt;i&gt;&lt;font style=&quot;font-size: 14px;&quot;&gt;numeric(20,5)&lt;/font&gt;&lt;/i&gt;&lt;/font&gt;" style="shape=partialRectangle;html=1;whiteSpace=wrap;connectable=0;fillColor=none;top=0;left=0;bottom=0;right=0;align=left;spacingLeft=6;overflow=hidden;strokeColor=inherit;fontSize=16;" parent="m1Vat-lX78rlXvC73KTk-163" vertex="1">
          <mxGeometry x="75" width="363" height="30" as="geometry">
            <mxRectangle width="363" height="30" as="alternateBounds" />
          </mxGeometry>
        </mxCell>
        <mxCell id="m1Vat-lX78rlXvC73KTk-166" value="" style="shape=tableRow;horizontal=0;startSize=0;swimlaneHead=0;swimlaneBody=0;top=0;left=0;bottom=0;right=0;collapsible=0;dropTarget=0;fillColor=none;points=[[0,0.5],[1,0.5]];portConstraint=eastwest;strokeColor=inherit;fontSize=16;" parent="m1Vat-lX78rlXvC73KTk-0" vertex="1">
          <mxGeometry y="435" width="437.5" height="30" as="geometry" />
        </mxCell>
        <mxCell id="m1Vat-lX78rlXvC73KTk-167" value="14" style="shape=partialRectangle;html=1;whiteSpace=wrap;connectable=0;fillColor=none;top=0;left=0;bottom=0;right=0;overflow=hidden;strokeColor=inherit;fontSize=16;" parent="m1Vat-lX78rlXvC73KTk-166" vertex="1">
          <mxGeometry width="75" height="30" as="geometry">
            <mxRectangle width="75" height="30" as="alternateBounds" />
          </mxGeometry>
        </mxCell>
        <mxCell id="m1Vat-lX78rlXvC73KTk-168" value="metric_denominator &lt;span style=&quot;white-space: pre;&quot;&gt; &lt;/span&gt;&lt;font color=&quot;#666666&quot;&gt;: &lt;i&gt;&lt;font style=&quot;font-size: 14px;&quot;&gt;numeric(20,5)&lt;/font&gt;&lt;/i&gt;&lt;/font&gt;" style="shape=partialRectangle;html=1;whiteSpace=wrap;connectable=0;fillColor=none;top=0;left=0;bottom=0;right=0;align=left;spacingLeft=6;overflow=hidden;strokeColor=inherit;fontSize=16;" parent="m1Vat-lX78rlXvC73KTk-166" vertex="1">
          <mxGeometry x="75" width="363" height="30" as="geometry">
            <mxRectangle width="363" height="30" as="alternateBounds" />
          </mxGeometry>
        </mxCell>
        <mxCell id="m1Vat-lX78rlXvC73KTk-169" value="" style="shape=tableRow;horizontal=0;startSize=0;swimlaneHead=0;swimlaneBody=0;top=0;left=0;bottom=0;right=0;collapsible=0;dropTarget=0;fillColor=none;points=[[0,0.5],[1,0.5]];portConstraint=eastwest;strokeColor=inherit;fontSize=16;" parent="m1Vat-lX78rlXvC73KTk-0" vertex="1">
          <mxGeometry y="465" width="437.5" height="30" as="geometry" />
        </mxCell>
        <mxCell id="m1Vat-lX78rlXvC73KTk-170" value="15" style="shape=partialRectangle;html=1;whiteSpace=wrap;connectable=0;fillColor=none;top=0;left=0;bottom=0;right=0;overflow=hidden;strokeColor=inherit;fontSize=16;" parent="m1Vat-lX78rlXvC73KTk-169" vertex="1">
          <mxGeometry width="75" height="30" as="geometry">
            <mxRectangle width="75" height="30" as="alternateBounds" />
          </mxGeometry>
        </mxCell>
        <mxCell id="m1Vat-lX78rlXvC73KTk-171" value="metric_value &lt;span style=&quot;white-space: pre;&quot;&gt; &lt;/span&gt;&lt;span style=&quot;white-space: pre;&quot;&gt; &lt;/span&gt;&lt;span style=&quot;white-space: pre;&quot;&gt; &lt;/span&gt;&lt;font color=&quot;#666666&quot;&gt;: &lt;i&gt;&lt;font style=&quot;font-size: 14px;&quot;&gt;numeric(20,5)&lt;/font&gt;&lt;/i&gt;&lt;/font&gt;" style="shape=partialRectangle;html=1;whiteSpace=wrap;connectable=0;fillColor=none;top=0;left=0;bottom=0;right=0;align=left;spacingLeft=6;overflow=hidden;strokeColor=inherit;fontSize=16;" parent="m1Vat-lX78rlXvC73KTk-169" vertex="1">
          <mxGeometry x="75" width="363" height="30" as="geometry">
            <mxRectangle width="363" height="30" as="alternateBounds" />
          </mxGeometry>
        </mxCell>
        <mxCell id="N6KDKI8sEQOp6_uf5EsT-0" value="" style="shape=tableRow;horizontal=0;startSize=0;swimlaneHead=0;swimlaneBody=0;top=0;left=0;bottom=0;right=0;collapsible=0;dropTarget=0;fillColor=none;points=[[0,0.5],[1,0.5]];portConstraint=eastwest;strokeColor=inherit;fontSize=16;" vertex="1" parent="m1Vat-lX78rlXvC73KTk-0">
          <mxGeometry y="495" width="437.5" height="30" as="geometry" />
        </mxCell>
        <mxCell id="N6KDKI8sEQOp6_uf5EsT-1" value="16" style="shape=partialRectangle;html=1;whiteSpace=wrap;connectable=0;fillColor=none;top=0;left=0;bottom=0;right=0;overflow=hidden;strokeColor=inherit;fontSize=16;" vertex="1" parent="N6KDKI8sEQOp6_uf5EsT-0">
          <mxGeometry width="75" height="30" as="geometry">
            <mxRectangle width="75" height="30" as="alternateBounds" />
          </mxGeometry>
        </mxCell>
        <mxCell id="N6KDKI8sEQOp6_uf5EsT-2" value="metric_goal &lt;span style=&quot;white-space: pre;&quot;&gt; &lt;/span&gt;&lt;span style=&quot;white-space: pre;&quot;&gt; &lt;/span&gt;&lt;span style=&quot;white-space: pre;&quot;&gt; &lt;/span&gt;&lt;font color=&quot;#666666&quot;&gt;:&amp;nbsp;&lt;i style=&quot;border-color: var(--border-color);&quot;&gt;&lt;font style=&quot;border-color: var(--border-color); font-size: 14px;&quot;&gt;numeric(20,5)&lt;/font&gt;&lt;/i&gt;&lt;/font&gt;" style="shape=partialRectangle;html=1;whiteSpace=wrap;connectable=0;fillColor=none;top=0;left=0;bottom=0;right=0;align=left;spacingLeft=6;overflow=hidden;strokeColor=inherit;fontSize=16;" vertex="1" parent="N6KDKI8sEQOp6_uf5EsT-0">
          <mxGeometry x="75" width="363" height="30" as="geometry">
            <mxRectangle width="363" height="30" as="alternateBounds" />
          </mxGeometry>
        </mxCell>
        <mxCell id="zkfFHV4jXpPFQw0GAbJ--12" value="" style="endArrow=block;endSize=10;endFill=0;shadow=0;strokeWidth=1;rounded=0;edgeStyle=elbowEdgeStyle;elbow=vertical;entryX=0.5;entryY=0;entryDx=0;entryDy=0;exitX=0.496;exitY=1.012;exitDx=0;exitDy=0;exitPerimeter=0;" parent="WIyWlLk6GJQsqaUBKTNV-1" source="m1Vat-lX78rlXvC73KTk-20" target="m1Vat-lX78rlXvC73KTk-10" edge="1">
          <mxGeometry width="160" relative="1" as="geometry">
            <mxPoint x="160" y="200" as="sourcePoint" />
            <mxPoint x="470" y="350" as="targetPoint" />
            <Array as="points">
              <mxPoint x="280" y="280" />
              <mxPoint x="330" y="270" />
              <mxPoint x="310" y="330" />
            </Array>
          </mxGeometry>
        </mxCell>
        <mxCell id="zkfFHV4jXpPFQw0GAbJ--16" value="" style="endArrow=block;endSize=10;endFill=0;shadow=0;strokeWidth=1;rounded=0;edgeStyle=elbowEdgeStyle;elbow=vertical;entryX=0.5;entryY=0;entryDx=0;entryDy=0;exitX=0.519;exitY=1.046;exitDx=0;exitDy=0;exitPerimeter=0;" parent="WIyWlLk6GJQsqaUBKTNV-1" source="m1Vat-lX78rlXvC73KTk-40" target="m1Vat-lX78rlXvC73KTk-10" edge="1">
          <mxGeometry width="160" relative="1" as="geometry">
            <mxPoint x="620" y="330" as="sourcePoint" />
            <mxPoint x="470" y="350" as="targetPoint" />
            <Array as="points">
              <mxPoint x="430" y="280" />
              <mxPoint x="380" y="270" />
              <mxPoint x="550" y="330" />
              <mxPoint x="550" y="330" />
              <mxPoint x="410" y="290" />
              <mxPoint x="420" y="240" />
              <mxPoint x="420" y="240" />
            </Array>
          </mxGeometry>
        </mxCell>
        <mxCell id="m1Vat-lX78rlXvC73KTk-10" value="&lt;font style=&quot;font-size: 10px;&quot;&gt;&lt;font style=&quot;font-size: 10px;&quot; color=&quot;#6600cc&quot;&gt;&lt;span style=&quot;white-space: pre;&quot;&gt; &lt;/span&gt;SELECT&lt;/font&gt; &lt;i&gt;&lt;font style=&quot;font-size: 10px;&quot; color=&quot;#666666&quot;&gt;metric_name, metric_date, ...&lt;/font&gt;&lt;/i&gt;&lt;br&gt;&lt;font style=&quot;font-size: 10px;&quot; color=&quot;#6600cc&quot;&gt;&lt;span style=&quot;white-space: pre;&quot;&gt; &lt;/span&gt;FROM&lt;/font&gt;&amp;nbsp;&lt;font color=&quot;#666666&quot;&gt;&lt;i&gt;SPX.&lt;font style=&quot;font-size: 10px;&quot;&gt;Table1&lt;/font&gt;&amp;nbsp;&lt;/i&gt;&lt;/font&gt;&lt;br&gt;&lt;font style=&quot;font-size: 10px;&quot; color=&quot;#6600cc&quot;&gt;&lt;span style=&quot;white-space: pre;&quot;&gt; &lt;/span&gt;UNION ALL&lt;br&gt;&lt;span style=&quot;white-space: pre;&quot;&gt; &lt;/span&gt;SELECT&lt;/font&gt; &lt;font style=&quot;font-size: 10px;&quot; color=&quot;#666666&quot;&gt;&lt;i&gt;metric_name, metric_date, ...&lt;/i&gt;&lt;/font&gt;&lt;br&gt;&lt;font style=&quot;font-size: 10px;&quot; color=&quot;#6600cc&quot;&gt;&lt;span style=&quot;white-space: pre;&quot;&gt; &lt;/span&gt;FROM&lt;/font&gt;&amp;nbsp;&lt;font color=&quot;#666666&quot;&gt;&lt;i&gt;Risk.&lt;font style=&quot;font-size: 10px;&quot;&gt;Table2&lt;/font&gt;&lt;/i&gt;&lt;/font&gt;&lt;br&gt;&lt;font style=&quot;font-size: 10px;&quot; color=&quot;#6600cc&quot;&gt;&lt;span style=&quot;white-space: pre;&quot;&gt; &lt;/span&gt;UNION ALL&lt;br&gt;&lt;span style=&quot;white-space: pre;&quot;&gt; &lt;/span&gt;SELECT&lt;/font&gt; &lt;font style=&quot;font-size: 10px;&quot; color=&quot;#666666&quot;&gt;&lt;i&gt;metric_name, metric_date, ...&lt;/i&gt;&lt;/font&gt;&lt;br&gt;&lt;font style=&quot;font-size: 10px;&quot; color=&quot;#6600cc&quot;&gt;&lt;span style=&quot;white-space: pre;&quot;&gt; &lt;/span&gt;FROM&lt;/font&gt;&amp;nbsp;&lt;i&gt;&lt;font color=&quot;#666666&quot;&gt;Controls.&lt;/font&gt;&lt;/i&gt;&lt;font style=&quot;font-size: 10px;&quot; color=&quot;#666666&quot;&gt;&lt;i&gt;Table3&lt;br&gt;&amp;nbsp;&lt;span style=&quot;white-space: pre;&quot;&gt; &lt;/span&gt;&lt;br&gt;&lt;/i&gt;&lt;/font&gt;&lt;/font&gt;" style="rounded=1;whiteSpace=wrap;html=1;strokeColor=#CCCCCC;align=left;" parent="WIyWlLk6GJQsqaUBKTNV-1" vertex="1">
          <mxGeometry x="267.5" y="380" width="210" height="150" as="geometry" />
        </mxCell>
        <mxCell id="m1Vat-lX78rlXvC73KTk-13" value="Table1" style="shape=table;startSize=30;container=1;collapsible=0;childLayout=tableLayout;fixedRows=1;rowLines=0;fontStyle=1;strokeColor=default;fontSize=16;" parent="WIyWlLk6GJQsqaUBKTNV-1" vertex="1">
          <mxGeometry x="70" y="80" width="180" height="120" as="geometry" />
        </mxCell>
        <mxCell id="m1Vat-lX78rlXvC73KTk-14" value="" style="shape=tableRow;horizontal=0;startSize=0;swimlaneHead=0;swimlaneBody=0;top=0;left=0;bottom=0;right=0;collapsible=0;dropTarget=0;fillColor=none;points=[[0,0.5],[1,0.5]];portConstraint=eastwest;strokeColor=inherit;fontSize=16;" parent="m1Vat-lX78rlXvC73KTk-13" vertex="1">
          <mxGeometry y="30" width="180" height="30" as="geometry" />
        </mxCell>
        <mxCell id="m1Vat-lX78rlXvC73KTk-15" value="1" style="shape=partialRectangle;html=1;whiteSpace=wrap;connectable=0;fillColor=none;top=0;left=0;bottom=0;right=0;overflow=hidden;pointerEvents=1;strokeColor=inherit;fontSize=16;" parent="m1Vat-lX78rlXvC73KTk-14" vertex="1">
          <mxGeometry width="40" height="30" as="geometry">
            <mxRectangle width="40" height="30" as="alternateBounds" />
          </mxGeometry>
        </mxCell>
        <mxCell id="m1Vat-lX78rlXvC73KTk-16" value="metric_name" style="shape=partialRectangle;html=1;whiteSpace=wrap;connectable=0;fillColor=none;top=0;left=0;bottom=0;right=0;align=left;spacingLeft=6;overflow=hidden;strokeColor=inherit;fontSize=16;" parent="m1Vat-lX78rlXvC73KTk-14" vertex="1">
          <mxGeometry x="40" width="140" height="30" as="geometry">
            <mxRectangle width="140" height="30" as="alternateBounds" />
          </mxGeometry>
        </mxCell>
        <mxCell id="m1Vat-lX78rlXvC73KTk-17" value="" style="shape=tableRow;horizontal=0;startSize=0;swimlaneHead=0;swimlaneBody=0;top=0;left=0;bottom=0;right=0;collapsible=0;dropTarget=0;fillColor=none;points=[[0,0.5],[1,0.5]];portConstraint=eastwest;strokeColor=inherit;fontSize=16;" parent="m1Vat-lX78rlXvC73KTk-13" vertex="1">
          <mxGeometry y="60" width="180" height="30" as="geometry" />
        </mxCell>
        <mxCell id="m1Vat-lX78rlXvC73KTk-18" value="2" style="shape=partialRectangle;html=1;whiteSpace=wrap;connectable=0;fillColor=none;top=0;left=0;bottom=0;right=0;overflow=hidden;strokeColor=inherit;fontSize=16;" parent="m1Vat-lX78rlXvC73KTk-17" vertex="1">
          <mxGeometry width="40" height="30" as="geometry">
            <mxRectangle width="40" height="30" as="alternateBounds" />
          </mxGeometry>
        </mxCell>
        <mxCell id="m1Vat-lX78rlXvC73KTk-19" value="metric_date" style="shape=partialRectangle;html=1;whiteSpace=wrap;connectable=0;fillColor=none;top=0;left=0;bottom=0;right=0;align=left;spacingLeft=6;overflow=hidden;strokeColor=inherit;fontSize=16;" parent="m1Vat-lX78rlXvC73KTk-17" vertex="1">
          <mxGeometry x="40" width="140" height="30" as="geometry">
            <mxRectangle width="140" height="30" as="alternateBounds" />
          </mxGeometry>
        </mxCell>
        <mxCell id="m1Vat-lX78rlXvC73KTk-20" value="" style="shape=tableRow;horizontal=0;startSize=0;swimlaneHead=0;swimlaneBody=0;top=0;left=0;bottom=0;right=0;collapsible=0;dropTarget=0;fillColor=none;points=[[0,0.5],[1,0.5]];portConstraint=eastwest;strokeColor=inherit;fontSize=16;" parent="m1Vat-lX78rlXvC73KTk-13" vertex="1">
          <mxGeometry y="90" width="180" height="30" as="geometry" />
        </mxCell>
        <mxCell id="m1Vat-lX78rlXvC73KTk-21" value="3" style="shape=partialRectangle;html=1;whiteSpace=wrap;connectable=0;fillColor=none;top=0;left=0;bottom=0;right=0;overflow=hidden;strokeColor=inherit;fontSize=16;" parent="m1Vat-lX78rlXvC73KTk-20" vertex="1">
          <mxGeometry width="40" height="30" as="geometry">
            <mxRectangle width="40" height="30" as="alternateBounds" />
          </mxGeometry>
        </mxCell>
        <mxCell id="m1Vat-lX78rlXvC73KTk-22" value="" style="shape=partialRectangle;html=1;whiteSpace=wrap;connectable=0;fillColor=none;top=0;left=0;bottom=0;right=0;align=left;spacingLeft=6;overflow=hidden;strokeColor=inherit;fontSize=16;" parent="m1Vat-lX78rlXvC73KTk-20" vertex="1">
          <mxGeometry x="40" width="140" height="30" as="geometry">
            <mxRectangle width="140" height="30" as="alternateBounds" />
          </mxGeometry>
        </mxCell>
        <mxCell id="m1Vat-lX78rlXvC73KTk-23" value="Table2" style="shape=table;startSize=30;container=1;collapsible=0;childLayout=tableLayout;fixedRows=1;rowLines=0;fontStyle=1;strokeColor=default;fontSize=16;" parent="WIyWlLk6GJQsqaUBKTNV-1" vertex="1">
          <mxGeometry x="280" y="80" width="180" height="120" as="geometry" />
        </mxCell>
        <mxCell id="m1Vat-lX78rlXvC73KTk-24" value="" style="shape=tableRow;horizontal=0;startSize=0;swimlaneHead=0;swimlaneBody=0;top=0;left=0;bottom=0;right=0;collapsible=0;dropTarget=0;fillColor=none;points=[[0,0.5],[1,0.5]];portConstraint=eastwest;strokeColor=inherit;fontSize=16;" parent="m1Vat-lX78rlXvC73KTk-23" vertex="1">
          <mxGeometry y="30" width="180" height="30" as="geometry" />
        </mxCell>
        <mxCell id="m1Vat-lX78rlXvC73KTk-25" value="1" style="shape=partialRectangle;html=1;whiteSpace=wrap;connectable=0;fillColor=none;top=0;left=0;bottom=0;right=0;overflow=hidden;pointerEvents=1;strokeColor=inherit;fontSize=16;" parent="m1Vat-lX78rlXvC73KTk-24" vertex="1">
          <mxGeometry width="40" height="30" as="geometry">
            <mxRectangle width="40" height="30" as="alternateBounds" />
          </mxGeometry>
        </mxCell>
        <mxCell id="m1Vat-lX78rlXvC73KTk-26" value="metric_name" style="shape=partialRectangle;html=1;whiteSpace=wrap;connectable=0;fillColor=none;top=0;left=0;bottom=0;right=0;align=left;spacingLeft=6;overflow=hidden;strokeColor=inherit;fontSize=16;" parent="m1Vat-lX78rlXvC73KTk-24" vertex="1">
          <mxGeometry x="40" width="140" height="30" as="geometry">
            <mxRectangle width="140" height="30" as="alternateBounds" />
          </mxGeometry>
        </mxCell>
        <mxCell id="m1Vat-lX78rlXvC73KTk-27" value="" style="shape=tableRow;horizontal=0;startSize=0;swimlaneHead=0;swimlaneBody=0;top=0;left=0;bottom=0;right=0;collapsible=0;dropTarget=0;fillColor=none;points=[[0,0.5],[1,0.5]];portConstraint=eastwest;strokeColor=inherit;fontSize=16;" parent="m1Vat-lX78rlXvC73KTk-23" vertex="1">
          <mxGeometry y="60" width="180" height="30" as="geometry" />
        </mxCell>
        <mxCell id="m1Vat-lX78rlXvC73KTk-28" value="2" style="shape=partialRectangle;html=1;whiteSpace=wrap;connectable=0;fillColor=none;top=0;left=0;bottom=0;right=0;overflow=hidden;strokeColor=inherit;fontSize=16;" parent="m1Vat-lX78rlXvC73KTk-27" vertex="1">
          <mxGeometry width="40" height="30" as="geometry">
            <mxRectangle width="40" height="30" as="alternateBounds" />
          </mxGeometry>
        </mxCell>
        <mxCell id="m1Vat-lX78rlXvC73KTk-29" value="metric_date" style="shape=partialRectangle;html=1;whiteSpace=wrap;connectable=0;fillColor=none;top=0;left=0;bottom=0;right=0;align=left;spacingLeft=6;overflow=hidden;strokeColor=inherit;fontSize=16;" parent="m1Vat-lX78rlXvC73KTk-27" vertex="1">
          <mxGeometry x="40" width="140" height="30" as="geometry">
            <mxRectangle width="140" height="30" as="alternateBounds" />
          </mxGeometry>
        </mxCell>
        <mxCell id="m1Vat-lX78rlXvC73KTk-30" value="" style="shape=tableRow;horizontal=0;startSize=0;swimlaneHead=0;swimlaneBody=0;top=0;left=0;bottom=0;right=0;collapsible=0;dropTarget=0;fillColor=none;points=[[0,0.5],[1,0.5]];portConstraint=eastwest;strokeColor=inherit;fontSize=16;" parent="m1Vat-lX78rlXvC73KTk-23" vertex="1">
          <mxGeometry y="90" width="180" height="30" as="geometry" />
        </mxCell>
        <mxCell id="m1Vat-lX78rlXvC73KTk-31" value="3" style="shape=partialRectangle;html=1;whiteSpace=wrap;connectable=0;fillColor=none;top=0;left=0;bottom=0;right=0;overflow=hidden;strokeColor=inherit;fontSize=16;" parent="m1Vat-lX78rlXvC73KTk-30" vertex="1">
          <mxGeometry width="40" height="30" as="geometry">
            <mxRectangle width="40" height="30" as="alternateBounds" />
          </mxGeometry>
        </mxCell>
        <mxCell id="m1Vat-lX78rlXvC73KTk-32" value="" style="shape=partialRectangle;html=1;whiteSpace=wrap;connectable=0;fillColor=none;top=0;left=0;bottom=0;right=0;align=left;spacingLeft=6;overflow=hidden;strokeColor=inherit;fontSize=16;" parent="m1Vat-lX78rlXvC73KTk-30" vertex="1">
          <mxGeometry x="40" width="140" height="30" as="geometry">
            <mxRectangle width="140" height="30" as="alternateBounds" />
          </mxGeometry>
        </mxCell>
        <mxCell id="m1Vat-lX78rlXvC73KTk-33" value="Table3" style="shape=table;startSize=30;container=1;collapsible=0;childLayout=tableLayout;fixedRows=1;rowLines=0;fontStyle=1;strokeColor=default;fontSize=16;" parent="WIyWlLk6GJQsqaUBKTNV-1" vertex="1">
          <mxGeometry x="490" y="80" width="180" height="120" as="geometry" />
        </mxCell>
        <mxCell id="m1Vat-lX78rlXvC73KTk-34" value="" style="shape=tableRow;horizontal=0;startSize=0;swimlaneHead=0;swimlaneBody=0;top=0;left=0;bottom=0;right=0;collapsible=0;dropTarget=0;fillColor=none;points=[[0,0.5],[1,0.5]];portConstraint=eastwest;strokeColor=inherit;fontSize=16;" parent="m1Vat-lX78rlXvC73KTk-33" vertex="1">
          <mxGeometry y="30" width="180" height="30" as="geometry" />
        </mxCell>
        <mxCell id="m1Vat-lX78rlXvC73KTk-35" value="1" style="shape=partialRectangle;html=1;whiteSpace=wrap;connectable=0;fillColor=none;top=0;left=0;bottom=0;right=0;overflow=hidden;pointerEvents=1;strokeColor=inherit;fontSize=16;" parent="m1Vat-lX78rlXvC73KTk-34" vertex="1">
          <mxGeometry width="40" height="30" as="geometry">
            <mxRectangle width="40" height="30" as="alternateBounds" />
          </mxGeometry>
        </mxCell>
        <mxCell id="m1Vat-lX78rlXvC73KTk-36" value="metric_name" style="shape=partialRectangle;html=1;whiteSpace=wrap;connectable=0;fillColor=none;top=0;left=0;bottom=0;right=0;align=left;spacingLeft=6;overflow=hidden;strokeColor=inherit;fontSize=16;" parent="m1Vat-lX78rlXvC73KTk-34" vertex="1">
          <mxGeometry x="40" width="140" height="30" as="geometry">
            <mxRectangle width="140" height="30" as="alternateBounds" />
          </mxGeometry>
        </mxCell>
        <mxCell id="m1Vat-lX78rlXvC73KTk-37" value="" style="shape=tableRow;horizontal=0;startSize=0;swimlaneHead=0;swimlaneBody=0;top=0;left=0;bottom=0;right=0;collapsible=0;dropTarget=0;fillColor=none;points=[[0,0.5],[1,0.5]];portConstraint=eastwest;strokeColor=inherit;fontSize=16;" parent="m1Vat-lX78rlXvC73KTk-33" vertex="1">
          <mxGeometry y="60" width="180" height="30" as="geometry" />
        </mxCell>
        <mxCell id="m1Vat-lX78rlXvC73KTk-38" value="2" style="shape=partialRectangle;html=1;whiteSpace=wrap;connectable=0;fillColor=none;top=0;left=0;bottom=0;right=0;overflow=hidden;strokeColor=inherit;fontSize=16;" parent="m1Vat-lX78rlXvC73KTk-37" vertex="1">
          <mxGeometry width="40" height="30" as="geometry">
            <mxRectangle width="40" height="30" as="alternateBounds" />
          </mxGeometry>
        </mxCell>
        <mxCell id="m1Vat-lX78rlXvC73KTk-39" value="metric_date" style="shape=partialRectangle;html=1;whiteSpace=wrap;connectable=0;fillColor=none;top=0;left=0;bottom=0;right=0;align=left;spacingLeft=6;overflow=hidden;strokeColor=inherit;fontSize=16;" parent="m1Vat-lX78rlXvC73KTk-37" vertex="1">
          <mxGeometry x="40" width="140" height="30" as="geometry">
            <mxRectangle width="140" height="30" as="alternateBounds" />
          </mxGeometry>
        </mxCell>
        <mxCell id="m1Vat-lX78rlXvC73KTk-40" value="" style="shape=tableRow;horizontal=0;startSize=0;swimlaneHead=0;swimlaneBody=0;top=0;left=0;bottom=0;right=0;collapsible=0;dropTarget=0;fillColor=none;points=[[0,0.5],[1,0.5]];portConstraint=eastwest;strokeColor=inherit;fontSize=16;" parent="m1Vat-lX78rlXvC73KTk-33" vertex="1">
          <mxGeometry y="90" width="180" height="30" as="geometry" />
        </mxCell>
        <mxCell id="m1Vat-lX78rlXvC73KTk-41" value="3" style="shape=partialRectangle;html=1;whiteSpace=wrap;connectable=0;fillColor=none;top=0;left=0;bottom=0;right=0;overflow=hidden;strokeColor=inherit;fontSize=16;" parent="m1Vat-lX78rlXvC73KTk-40" vertex="1">
          <mxGeometry width="40" height="30" as="geometry">
            <mxRectangle width="40" height="30" as="alternateBounds" />
          </mxGeometry>
        </mxCell>
        <mxCell id="m1Vat-lX78rlXvC73KTk-42" value="" style="shape=partialRectangle;html=1;whiteSpace=wrap;connectable=0;fillColor=none;top=0;left=0;bottom=0;right=0;align=left;spacingLeft=6;overflow=hidden;strokeColor=inherit;fontSize=16;" parent="m1Vat-lX78rlXvC73KTk-40" vertex="1">
          <mxGeometry x="40" width="140" height="30" as="geometry">
            <mxRectangle width="140" height="30" as="alternateBounds" />
          </mxGeometry>
        </mxCell>
        <mxCell id="m1Vat-lX78rlXvC73KTk-43" value="Table1" style="shape=table;startSize=30;container=1;collapsible=0;childLayout=tableLayout;fixedRows=1;rowLines=0;fontStyle=1;strokeColor=default;fontSize=16;" parent="WIyWlLk6GJQsqaUBKTNV-1" vertex="1">
          <mxGeometry x="-160" y="230" width="180" height="120" as="geometry" />
        </mxCell>
        <mxCell id="m1Vat-lX78rlXvC73KTk-44" value="" style="shape=tableRow;horizontal=0;startSize=0;swimlaneHead=0;swimlaneBody=0;top=0;left=0;bottom=0;right=0;collapsible=0;dropTarget=0;fillColor=none;points=[[0,0.5],[1,0.5]];portConstraint=eastwest;strokeColor=inherit;fontSize=16;" parent="m1Vat-lX78rlXvC73KTk-43" vertex="1">
          <mxGeometry y="30" width="180" height="30" as="geometry" />
        </mxCell>
        <mxCell id="m1Vat-lX78rlXvC73KTk-45" value="1" style="shape=partialRectangle;html=1;whiteSpace=wrap;connectable=0;fillColor=none;top=0;left=0;bottom=0;right=0;overflow=hidden;pointerEvents=1;strokeColor=inherit;fontSize=16;" parent="m1Vat-lX78rlXvC73KTk-44" vertex="1">
          <mxGeometry width="40" height="30" as="geometry">
            <mxRectangle width="40" height="30" as="alternateBounds" />
          </mxGeometry>
        </mxCell>
        <mxCell id="m1Vat-lX78rlXvC73KTk-46" value="metric_name" style="shape=partialRectangle;html=1;whiteSpace=wrap;connectable=0;fillColor=none;top=0;left=0;bottom=0;right=0;align=left;spacingLeft=6;overflow=hidden;strokeColor=inherit;fontSize=16;" parent="m1Vat-lX78rlXvC73KTk-44" vertex="1">
          <mxGeometry x="40" width="140" height="30" as="geometry">
            <mxRectangle width="140" height="30" as="alternateBounds" />
          </mxGeometry>
        </mxCell>
        <mxCell id="m1Vat-lX78rlXvC73KTk-47" value="" style="shape=tableRow;horizontal=0;startSize=0;swimlaneHead=0;swimlaneBody=0;top=0;left=0;bottom=0;right=0;collapsible=0;dropTarget=0;fillColor=none;points=[[0,0.5],[1,0.5]];portConstraint=eastwest;strokeColor=inherit;fontSize=16;" parent="m1Vat-lX78rlXvC73KTk-43" vertex="1">
          <mxGeometry y="60" width="180" height="30" as="geometry" />
        </mxCell>
        <mxCell id="m1Vat-lX78rlXvC73KTk-48" value="2" style="shape=partialRectangle;html=1;whiteSpace=wrap;connectable=0;fillColor=none;top=0;left=0;bottom=0;right=0;overflow=hidden;strokeColor=inherit;fontSize=16;" parent="m1Vat-lX78rlXvC73KTk-47" vertex="1">
          <mxGeometry width="40" height="30" as="geometry">
            <mxRectangle width="40" height="30" as="alternateBounds" />
          </mxGeometry>
        </mxCell>
        <mxCell id="m1Vat-lX78rlXvC73KTk-49" value="metric_date" style="shape=partialRectangle;html=1;whiteSpace=wrap;connectable=0;fillColor=none;top=0;left=0;bottom=0;right=0;align=left;spacingLeft=6;overflow=hidden;strokeColor=inherit;fontSize=16;" parent="m1Vat-lX78rlXvC73KTk-47" vertex="1">
          <mxGeometry x="40" width="140" height="30" as="geometry">
            <mxRectangle width="140" height="30" as="alternateBounds" />
          </mxGeometry>
        </mxCell>
        <mxCell id="m1Vat-lX78rlXvC73KTk-50" value="" style="shape=tableRow;horizontal=0;startSize=0;swimlaneHead=0;swimlaneBody=0;top=0;left=0;bottom=0;right=0;collapsible=0;dropTarget=0;fillColor=none;points=[[0,0.5],[1,0.5]];portConstraint=eastwest;strokeColor=inherit;fontSize=16;" parent="m1Vat-lX78rlXvC73KTk-43" vertex="1">
          <mxGeometry y="90" width="180" height="30" as="geometry" />
        </mxCell>
        <mxCell id="m1Vat-lX78rlXvC73KTk-51" value="3" style="shape=partialRectangle;html=1;whiteSpace=wrap;connectable=0;fillColor=none;top=0;left=0;bottom=0;right=0;overflow=hidden;strokeColor=inherit;fontSize=16;" parent="m1Vat-lX78rlXvC73KTk-50" vertex="1">
          <mxGeometry width="40" height="30" as="geometry">
            <mxRectangle width="40" height="30" as="alternateBounds" />
          </mxGeometry>
        </mxCell>
        <mxCell id="m1Vat-lX78rlXvC73KTk-52" value="" style="shape=partialRectangle;html=1;whiteSpace=wrap;connectable=0;fillColor=none;top=0;left=0;bottom=0;right=0;align=left;spacingLeft=6;overflow=hidden;strokeColor=inherit;fontSize=16;" parent="m1Vat-lX78rlXvC73KTk-50" vertex="1">
          <mxGeometry x="40" width="140" height="30" as="geometry">
            <mxRectangle width="140" height="30" as="alternateBounds" />
          </mxGeometry>
        </mxCell>
        <mxCell id="m1Vat-lX78rlXvC73KTk-53" value="Table2" style="shape=table;startSize=30;container=1;collapsible=0;childLayout=tableLayout;fixedRows=1;rowLines=0;fontStyle=1;strokeColor=default;fontSize=16;" parent="WIyWlLk6GJQsqaUBKTNV-1" vertex="1">
          <mxGeometry x="-160" y="380" width="180" height="120" as="geometry" />
        </mxCell>
        <mxCell id="m1Vat-lX78rlXvC73KTk-54" value="" style="shape=tableRow;horizontal=0;startSize=0;swimlaneHead=0;swimlaneBody=0;top=0;left=0;bottom=0;right=0;collapsible=0;dropTarget=0;fillColor=none;points=[[0,0.5],[1,0.5]];portConstraint=eastwest;strokeColor=inherit;fontSize=16;" parent="m1Vat-lX78rlXvC73KTk-53" vertex="1">
          <mxGeometry y="30" width="180" height="30" as="geometry" />
        </mxCell>
        <mxCell id="m1Vat-lX78rlXvC73KTk-55" value="1" style="shape=partialRectangle;html=1;whiteSpace=wrap;connectable=0;fillColor=none;top=0;left=0;bottom=0;right=0;overflow=hidden;pointerEvents=1;strokeColor=inherit;fontSize=16;" parent="m1Vat-lX78rlXvC73KTk-54" vertex="1">
          <mxGeometry width="40" height="30" as="geometry">
            <mxRectangle width="40" height="30" as="alternateBounds" />
          </mxGeometry>
        </mxCell>
        <mxCell id="m1Vat-lX78rlXvC73KTk-56" value="metric_name" style="shape=partialRectangle;html=1;whiteSpace=wrap;connectable=0;fillColor=none;top=0;left=0;bottom=0;right=0;align=left;spacingLeft=6;overflow=hidden;strokeColor=inherit;fontSize=16;" parent="m1Vat-lX78rlXvC73KTk-54" vertex="1">
          <mxGeometry x="40" width="140" height="30" as="geometry">
            <mxRectangle width="140" height="30" as="alternateBounds" />
          </mxGeometry>
        </mxCell>
        <mxCell id="m1Vat-lX78rlXvC73KTk-57" value="" style="shape=tableRow;horizontal=0;startSize=0;swimlaneHead=0;swimlaneBody=0;top=0;left=0;bottom=0;right=0;collapsible=0;dropTarget=0;fillColor=none;points=[[0,0.5],[1,0.5]];portConstraint=eastwest;strokeColor=inherit;fontSize=16;" parent="m1Vat-lX78rlXvC73KTk-53" vertex="1">
          <mxGeometry y="60" width="180" height="30" as="geometry" />
        </mxCell>
        <mxCell id="m1Vat-lX78rlXvC73KTk-58" value="2" style="shape=partialRectangle;html=1;whiteSpace=wrap;connectable=0;fillColor=none;top=0;left=0;bottom=0;right=0;overflow=hidden;strokeColor=inherit;fontSize=16;" parent="m1Vat-lX78rlXvC73KTk-57" vertex="1">
          <mxGeometry width="40" height="30" as="geometry">
            <mxRectangle width="40" height="30" as="alternateBounds" />
          </mxGeometry>
        </mxCell>
        <mxCell id="m1Vat-lX78rlXvC73KTk-59" value="metric_date" style="shape=partialRectangle;html=1;whiteSpace=wrap;connectable=0;fillColor=none;top=0;left=0;bottom=0;right=0;align=left;spacingLeft=6;overflow=hidden;strokeColor=inherit;fontSize=16;" parent="m1Vat-lX78rlXvC73KTk-57" vertex="1">
          <mxGeometry x="40" width="140" height="30" as="geometry">
            <mxRectangle width="140" height="30" as="alternateBounds" />
          </mxGeometry>
        </mxCell>
        <mxCell id="m1Vat-lX78rlXvC73KTk-60" value="" style="shape=tableRow;horizontal=0;startSize=0;swimlaneHead=0;swimlaneBody=0;top=0;left=0;bottom=0;right=0;collapsible=0;dropTarget=0;fillColor=none;points=[[0,0.5],[1,0.5]];portConstraint=eastwest;strokeColor=inherit;fontSize=16;" parent="m1Vat-lX78rlXvC73KTk-53" vertex="1">
          <mxGeometry y="90" width="180" height="30" as="geometry" />
        </mxCell>
        <mxCell id="m1Vat-lX78rlXvC73KTk-61" value="3" style="shape=partialRectangle;html=1;whiteSpace=wrap;connectable=0;fillColor=none;top=0;left=0;bottom=0;right=0;overflow=hidden;strokeColor=inherit;fontSize=16;" parent="m1Vat-lX78rlXvC73KTk-60" vertex="1">
          <mxGeometry width="40" height="30" as="geometry">
            <mxRectangle width="40" height="30" as="alternateBounds" />
          </mxGeometry>
        </mxCell>
        <mxCell id="m1Vat-lX78rlXvC73KTk-62" value="" style="shape=partialRectangle;html=1;whiteSpace=wrap;connectable=0;fillColor=none;top=0;left=0;bottom=0;right=0;align=left;spacingLeft=6;overflow=hidden;strokeColor=inherit;fontSize=16;" parent="m1Vat-lX78rlXvC73KTk-60" vertex="1">
          <mxGeometry x="40" width="140" height="30" as="geometry">
            <mxRectangle width="140" height="30" as="alternateBounds" />
          </mxGeometry>
        </mxCell>
        <mxCell id="m1Vat-lX78rlXvC73KTk-63" value="Table3" style="shape=table;startSize=30;container=1;collapsible=0;childLayout=tableLayout;fixedRows=1;rowLines=0;fontStyle=1;strokeColor=default;fontSize=16;" parent="WIyWlLk6GJQsqaUBKTNV-1" vertex="1">
          <mxGeometry x="-160" y="530" width="180" height="120" as="geometry" />
        </mxCell>
        <mxCell id="m1Vat-lX78rlXvC73KTk-64" value="" style="shape=tableRow;horizontal=0;startSize=0;swimlaneHead=0;swimlaneBody=0;top=0;left=0;bottom=0;right=0;collapsible=0;dropTarget=0;fillColor=none;points=[[0,0.5],[1,0.5]];portConstraint=eastwest;strokeColor=inherit;fontSize=16;" parent="m1Vat-lX78rlXvC73KTk-63" vertex="1">
          <mxGeometry y="30" width="180" height="30" as="geometry" />
        </mxCell>
        <mxCell id="m1Vat-lX78rlXvC73KTk-65" value="1" style="shape=partialRectangle;html=1;whiteSpace=wrap;connectable=0;fillColor=none;top=0;left=0;bottom=0;right=0;overflow=hidden;pointerEvents=1;strokeColor=inherit;fontSize=16;" parent="m1Vat-lX78rlXvC73KTk-64" vertex="1">
          <mxGeometry width="40" height="30" as="geometry">
            <mxRectangle width="40" height="30" as="alternateBounds" />
          </mxGeometry>
        </mxCell>
        <mxCell id="m1Vat-lX78rlXvC73KTk-66" value="metric_name" style="shape=partialRectangle;html=1;whiteSpace=wrap;connectable=0;fillColor=none;top=0;left=0;bottom=0;right=0;align=left;spacingLeft=6;overflow=hidden;strokeColor=inherit;fontSize=16;" parent="m1Vat-lX78rlXvC73KTk-64" vertex="1">
          <mxGeometry x="40" width="140" height="30" as="geometry">
            <mxRectangle width="140" height="30" as="alternateBounds" />
          </mxGeometry>
        </mxCell>
        <mxCell id="m1Vat-lX78rlXvC73KTk-67" value="" style="shape=tableRow;horizontal=0;startSize=0;swimlaneHead=0;swimlaneBody=0;top=0;left=0;bottom=0;right=0;collapsible=0;dropTarget=0;fillColor=none;points=[[0,0.5],[1,0.5]];portConstraint=eastwest;strokeColor=inherit;fontSize=16;" parent="m1Vat-lX78rlXvC73KTk-63" vertex="1">
          <mxGeometry y="60" width="180" height="30" as="geometry" />
        </mxCell>
        <mxCell id="m1Vat-lX78rlXvC73KTk-68" value="2" style="shape=partialRectangle;html=1;whiteSpace=wrap;connectable=0;fillColor=none;top=0;left=0;bottom=0;right=0;overflow=hidden;strokeColor=inherit;fontSize=16;" parent="m1Vat-lX78rlXvC73KTk-67" vertex="1">
          <mxGeometry width="40" height="30" as="geometry">
            <mxRectangle width="40" height="30" as="alternateBounds" />
          </mxGeometry>
        </mxCell>
        <mxCell id="m1Vat-lX78rlXvC73KTk-69" value="metric_date" style="shape=partialRectangle;html=1;whiteSpace=wrap;connectable=0;fillColor=none;top=0;left=0;bottom=0;right=0;align=left;spacingLeft=6;overflow=hidden;strokeColor=inherit;fontSize=16;" parent="m1Vat-lX78rlXvC73KTk-67" vertex="1">
          <mxGeometry x="40" width="140" height="30" as="geometry">
            <mxRectangle width="140" height="30" as="alternateBounds" />
          </mxGeometry>
        </mxCell>
        <mxCell id="m1Vat-lX78rlXvC73KTk-70" value="" style="shape=tableRow;horizontal=0;startSize=0;swimlaneHead=0;swimlaneBody=0;top=0;left=0;bottom=0;right=0;collapsible=0;dropTarget=0;fillColor=none;points=[[0,0.5],[1,0.5]];portConstraint=eastwest;strokeColor=inherit;fontSize=16;" parent="m1Vat-lX78rlXvC73KTk-63" vertex="1">
          <mxGeometry y="90" width="180" height="30" as="geometry" />
        </mxCell>
        <mxCell id="m1Vat-lX78rlXvC73KTk-71" value="3" style="shape=partialRectangle;html=1;whiteSpace=wrap;connectable=0;fillColor=none;top=0;left=0;bottom=0;right=0;overflow=hidden;strokeColor=inherit;fontSize=16;" parent="m1Vat-lX78rlXvC73KTk-70" vertex="1">
          <mxGeometry width="40" height="30" as="geometry">
            <mxRectangle width="40" height="30" as="alternateBounds" />
          </mxGeometry>
        </mxCell>
        <mxCell id="m1Vat-lX78rlXvC73KTk-72" value="" style="shape=partialRectangle;html=1;whiteSpace=wrap;connectable=0;fillColor=none;top=0;left=0;bottom=0;right=0;align=left;spacingLeft=6;overflow=hidden;strokeColor=inherit;fontSize=16;" parent="m1Vat-lX78rlXvC73KTk-70" vertex="1">
          <mxGeometry x="40" width="140" height="30" as="geometry">
            <mxRectangle width="140" height="30" as="alternateBounds" />
          </mxGeometry>
        </mxCell>
        <mxCell id="m1Vat-lX78rlXvC73KTk-73" value="Table1" style="shape=table;startSize=30;container=1;collapsible=0;childLayout=tableLayout;fixedRows=1;rowLines=0;fontStyle=1;strokeColor=default;fontSize=16;" parent="WIyWlLk6GJQsqaUBKTNV-1" vertex="1">
          <mxGeometry x="720" y="230" width="180" height="120" as="geometry" />
        </mxCell>
        <mxCell id="m1Vat-lX78rlXvC73KTk-74" value="" style="shape=tableRow;horizontal=0;startSize=0;swimlaneHead=0;swimlaneBody=0;top=0;left=0;bottom=0;right=0;collapsible=0;dropTarget=0;fillColor=none;points=[[0,0.5],[1,0.5]];portConstraint=eastwest;strokeColor=inherit;fontSize=16;" parent="m1Vat-lX78rlXvC73KTk-73" vertex="1">
          <mxGeometry y="30" width="180" height="30" as="geometry" />
        </mxCell>
        <mxCell id="m1Vat-lX78rlXvC73KTk-75" value="1" style="shape=partialRectangle;html=1;whiteSpace=wrap;connectable=0;fillColor=none;top=0;left=0;bottom=0;right=0;overflow=hidden;pointerEvents=1;strokeColor=inherit;fontSize=16;" parent="m1Vat-lX78rlXvC73KTk-74" vertex="1">
          <mxGeometry width="40" height="30" as="geometry">
            <mxRectangle width="40" height="30" as="alternateBounds" />
          </mxGeometry>
        </mxCell>
        <mxCell id="m1Vat-lX78rlXvC73KTk-76" value="metric_name" style="shape=partialRectangle;html=1;whiteSpace=wrap;connectable=0;fillColor=none;top=0;left=0;bottom=0;right=0;align=left;spacingLeft=6;overflow=hidden;strokeColor=inherit;fontSize=16;" parent="m1Vat-lX78rlXvC73KTk-74" vertex="1">
          <mxGeometry x="40" width="140" height="30" as="geometry">
            <mxRectangle width="140" height="30" as="alternateBounds" />
          </mxGeometry>
        </mxCell>
        <mxCell id="m1Vat-lX78rlXvC73KTk-77" value="" style="shape=tableRow;horizontal=0;startSize=0;swimlaneHead=0;swimlaneBody=0;top=0;left=0;bottom=0;right=0;collapsible=0;dropTarget=0;fillColor=none;points=[[0,0.5],[1,0.5]];portConstraint=eastwest;strokeColor=inherit;fontSize=16;" parent="m1Vat-lX78rlXvC73KTk-73" vertex="1">
          <mxGeometry y="60" width="180" height="30" as="geometry" />
        </mxCell>
        <mxCell id="m1Vat-lX78rlXvC73KTk-78" value="2" style="shape=partialRectangle;html=1;whiteSpace=wrap;connectable=0;fillColor=none;top=0;left=0;bottom=0;right=0;overflow=hidden;strokeColor=inherit;fontSize=16;" parent="m1Vat-lX78rlXvC73KTk-77" vertex="1">
          <mxGeometry width="40" height="30" as="geometry">
            <mxRectangle width="40" height="30" as="alternateBounds" />
          </mxGeometry>
        </mxCell>
        <mxCell id="m1Vat-lX78rlXvC73KTk-79" value="metric_date" style="shape=partialRectangle;html=1;whiteSpace=wrap;connectable=0;fillColor=none;top=0;left=0;bottom=0;right=0;align=left;spacingLeft=6;overflow=hidden;strokeColor=inherit;fontSize=16;" parent="m1Vat-lX78rlXvC73KTk-77" vertex="1">
          <mxGeometry x="40" width="140" height="30" as="geometry">
            <mxRectangle width="140" height="30" as="alternateBounds" />
          </mxGeometry>
        </mxCell>
        <mxCell id="m1Vat-lX78rlXvC73KTk-80" value="" style="shape=tableRow;horizontal=0;startSize=0;swimlaneHead=0;swimlaneBody=0;top=0;left=0;bottom=0;right=0;collapsible=0;dropTarget=0;fillColor=none;points=[[0,0.5],[1,0.5]];portConstraint=eastwest;strokeColor=inherit;fontSize=16;" parent="m1Vat-lX78rlXvC73KTk-73" vertex="1">
          <mxGeometry y="90" width="180" height="30" as="geometry" />
        </mxCell>
        <mxCell id="m1Vat-lX78rlXvC73KTk-81" value="3" style="shape=partialRectangle;html=1;whiteSpace=wrap;connectable=0;fillColor=none;top=0;left=0;bottom=0;right=0;overflow=hidden;strokeColor=inherit;fontSize=16;" parent="m1Vat-lX78rlXvC73KTk-80" vertex="1">
          <mxGeometry width="40" height="30" as="geometry">
            <mxRectangle width="40" height="30" as="alternateBounds" />
          </mxGeometry>
        </mxCell>
        <mxCell id="m1Vat-lX78rlXvC73KTk-82" value="" style="shape=partialRectangle;html=1;whiteSpace=wrap;connectable=0;fillColor=none;top=0;left=0;bottom=0;right=0;align=left;spacingLeft=6;overflow=hidden;strokeColor=inherit;fontSize=16;" parent="m1Vat-lX78rlXvC73KTk-80" vertex="1">
          <mxGeometry x="40" width="140" height="30" as="geometry">
            <mxRectangle width="140" height="30" as="alternateBounds" />
          </mxGeometry>
        </mxCell>
        <mxCell id="m1Vat-lX78rlXvC73KTk-83" value="Table2" style="shape=table;startSize=30;container=1;collapsible=0;childLayout=tableLayout;fixedRows=1;rowLines=0;fontStyle=1;strokeColor=default;fontSize=16;" parent="WIyWlLk6GJQsqaUBKTNV-1" vertex="1">
          <mxGeometry x="720" y="380" width="180" height="120" as="geometry" />
        </mxCell>
        <mxCell id="m1Vat-lX78rlXvC73KTk-84" value="" style="shape=tableRow;horizontal=0;startSize=0;swimlaneHead=0;swimlaneBody=0;top=0;left=0;bottom=0;right=0;collapsible=0;dropTarget=0;fillColor=none;points=[[0,0.5],[1,0.5]];portConstraint=eastwest;strokeColor=inherit;fontSize=16;" parent="m1Vat-lX78rlXvC73KTk-83" vertex="1">
          <mxGeometry y="30" width="180" height="30" as="geometry" />
        </mxCell>
        <mxCell id="m1Vat-lX78rlXvC73KTk-85" value="1" style="shape=partialRectangle;html=1;whiteSpace=wrap;connectable=0;fillColor=none;top=0;left=0;bottom=0;right=0;overflow=hidden;pointerEvents=1;strokeColor=inherit;fontSize=16;" parent="m1Vat-lX78rlXvC73KTk-84" vertex="1">
          <mxGeometry width="40" height="30" as="geometry">
            <mxRectangle width="40" height="30" as="alternateBounds" />
          </mxGeometry>
        </mxCell>
        <mxCell id="m1Vat-lX78rlXvC73KTk-86" value="metric_name" style="shape=partialRectangle;html=1;whiteSpace=wrap;connectable=0;fillColor=none;top=0;left=0;bottom=0;right=0;align=left;spacingLeft=6;overflow=hidden;strokeColor=inherit;fontSize=16;" parent="m1Vat-lX78rlXvC73KTk-84" vertex="1">
          <mxGeometry x="40" width="140" height="30" as="geometry">
            <mxRectangle width="140" height="30" as="alternateBounds" />
          </mxGeometry>
        </mxCell>
        <mxCell id="m1Vat-lX78rlXvC73KTk-87" value="" style="shape=tableRow;horizontal=0;startSize=0;swimlaneHead=0;swimlaneBody=0;top=0;left=0;bottom=0;right=0;collapsible=0;dropTarget=0;fillColor=none;points=[[0,0.5],[1,0.5]];portConstraint=eastwest;strokeColor=inherit;fontSize=16;" parent="m1Vat-lX78rlXvC73KTk-83" vertex="1">
          <mxGeometry y="60" width="180" height="30" as="geometry" />
        </mxCell>
        <mxCell id="m1Vat-lX78rlXvC73KTk-88" value="2" style="shape=partialRectangle;html=1;whiteSpace=wrap;connectable=0;fillColor=none;top=0;left=0;bottom=0;right=0;overflow=hidden;strokeColor=inherit;fontSize=16;" parent="m1Vat-lX78rlXvC73KTk-87" vertex="1">
          <mxGeometry width="40" height="30" as="geometry">
            <mxRectangle width="40" height="30" as="alternateBounds" />
          </mxGeometry>
        </mxCell>
        <mxCell id="m1Vat-lX78rlXvC73KTk-89" value="metric_date" style="shape=partialRectangle;html=1;whiteSpace=wrap;connectable=0;fillColor=none;top=0;left=0;bottom=0;right=0;align=left;spacingLeft=6;overflow=hidden;strokeColor=inherit;fontSize=16;" parent="m1Vat-lX78rlXvC73KTk-87" vertex="1">
          <mxGeometry x="40" width="140" height="30" as="geometry">
            <mxRectangle width="140" height="30" as="alternateBounds" />
          </mxGeometry>
        </mxCell>
        <mxCell id="m1Vat-lX78rlXvC73KTk-90" value="" style="shape=tableRow;horizontal=0;startSize=0;swimlaneHead=0;swimlaneBody=0;top=0;left=0;bottom=0;right=0;collapsible=0;dropTarget=0;fillColor=none;points=[[0,0.5],[1,0.5]];portConstraint=eastwest;strokeColor=inherit;fontSize=16;" parent="m1Vat-lX78rlXvC73KTk-83" vertex="1">
          <mxGeometry y="90" width="180" height="30" as="geometry" />
        </mxCell>
        <mxCell id="m1Vat-lX78rlXvC73KTk-91" value="3" style="shape=partialRectangle;html=1;whiteSpace=wrap;connectable=0;fillColor=none;top=0;left=0;bottom=0;right=0;overflow=hidden;strokeColor=inherit;fontSize=16;" parent="m1Vat-lX78rlXvC73KTk-90" vertex="1">
          <mxGeometry width="40" height="30" as="geometry">
            <mxRectangle width="40" height="30" as="alternateBounds" />
          </mxGeometry>
        </mxCell>
        <mxCell id="m1Vat-lX78rlXvC73KTk-92" value="" style="shape=partialRectangle;html=1;whiteSpace=wrap;connectable=0;fillColor=none;top=0;left=0;bottom=0;right=0;align=left;spacingLeft=6;overflow=hidden;strokeColor=inherit;fontSize=16;" parent="m1Vat-lX78rlXvC73KTk-90" vertex="1">
          <mxGeometry x="40" width="140" height="30" as="geometry">
            <mxRectangle width="140" height="30" as="alternateBounds" />
          </mxGeometry>
        </mxCell>
        <mxCell id="m1Vat-lX78rlXvC73KTk-93" value="Table3" style="shape=table;startSize=30;container=1;collapsible=0;childLayout=tableLayout;fixedRows=1;rowLines=0;fontStyle=1;strokeColor=default;fontSize=16;" parent="WIyWlLk6GJQsqaUBKTNV-1" vertex="1">
          <mxGeometry x="720" y="530" width="180" height="120" as="geometry" />
        </mxCell>
        <mxCell id="m1Vat-lX78rlXvC73KTk-94" value="" style="shape=tableRow;horizontal=0;startSize=0;swimlaneHead=0;swimlaneBody=0;top=0;left=0;bottom=0;right=0;collapsible=0;dropTarget=0;fillColor=none;points=[[0,0.5],[1,0.5]];portConstraint=eastwest;strokeColor=inherit;fontSize=16;" parent="m1Vat-lX78rlXvC73KTk-93" vertex="1">
          <mxGeometry y="30" width="180" height="30" as="geometry" />
        </mxCell>
        <mxCell id="m1Vat-lX78rlXvC73KTk-95" value="1" style="shape=partialRectangle;html=1;whiteSpace=wrap;connectable=0;fillColor=none;top=0;left=0;bottom=0;right=0;overflow=hidden;pointerEvents=1;strokeColor=inherit;fontSize=16;" parent="m1Vat-lX78rlXvC73KTk-94" vertex="1">
          <mxGeometry width="40" height="30" as="geometry">
            <mxRectangle width="40" height="30" as="alternateBounds" />
          </mxGeometry>
        </mxCell>
        <mxCell id="m1Vat-lX78rlXvC73KTk-96" value="metric_name" style="shape=partialRectangle;html=1;whiteSpace=wrap;connectable=0;fillColor=none;top=0;left=0;bottom=0;right=0;align=left;spacingLeft=6;overflow=hidden;strokeColor=inherit;fontSize=16;" parent="m1Vat-lX78rlXvC73KTk-94" vertex="1">
          <mxGeometry x="40" width="140" height="30" as="geometry">
            <mxRectangle width="140" height="30" as="alternateBounds" />
          </mxGeometry>
        </mxCell>
        <mxCell id="m1Vat-lX78rlXvC73KTk-97" value="" style="shape=tableRow;horizontal=0;startSize=0;swimlaneHead=0;swimlaneBody=0;top=0;left=0;bottom=0;right=0;collapsible=0;dropTarget=0;fillColor=none;points=[[0,0.5],[1,0.5]];portConstraint=eastwest;strokeColor=inherit;fontSize=16;" parent="m1Vat-lX78rlXvC73KTk-93" vertex="1">
          <mxGeometry y="60" width="180" height="30" as="geometry" />
        </mxCell>
        <mxCell id="m1Vat-lX78rlXvC73KTk-98" value="2" style="shape=partialRectangle;html=1;whiteSpace=wrap;connectable=0;fillColor=none;top=0;left=0;bottom=0;right=0;overflow=hidden;strokeColor=inherit;fontSize=16;" parent="m1Vat-lX78rlXvC73KTk-97" vertex="1">
          <mxGeometry width="40" height="30" as="geometry">
            <mxRectangle width="40" height="30" as="alternateBounds" />
          </mxGeometry>
        </mxCell>
        <mxCell id="m1Vat-lX78rlXvC73KTk-99" value="metric_date" style="shape=partialRectangle;html=1;whiteSpace=wrap;connectable=0;fillColor=none;top=0;left=0;bottom=0;right=0;align=left;spacingLeft=6;overflow=hidden;strokeColor=inherit;fontSize=16;" parent="m1Vat-lX78rlXvC73KTk-97" vertex="1">
          <mxGeometry x="40" width="140" height="30" as="geometry">
            <mxRectangle width="140" height="30" as="alternateBounds" />
          </mxGeometry>
        </mxCell>
        <mxCell id="m1Vat-lX78rlXvC73KTk-100" value="" style="shape=tableRow;horizontal=0;startSize=0;swimlaneHead=0;swimlaneBody=0;top=0;left=0;bottom=0;right=0;collapsible=0;dropTarget=0;fillColor=none;points=[[0,0.5],[1,0.5]];portConstraint=eastwest;strokeColor=inherit;fontSize=16;" parent="m1Vat-lX78rlXvC73KTk-93" vertex="1">
          <mxGeometry y="90" width="180" height="30" as="geometry" />
        </mxCell>
        <mxCell id="m1Vat-lX78rlXvC73KTk-101" value="3" style="shape=partialRectangle;html=1;whiteSpace=wrap;connectable=0;fillColor=none;top=0;left=0;bottom=0;right=0;overflow=hidden;strokeColor=inherit;fontSize=16;" parent="m1Vat-lX78rlXvC73KTk-100" vertex="1">
          <mxGeometry width="40" height="30" as="geometry">
            <mxRectangle width="40" height="30" as="alternateBounds" />
          </mxGeometry>
        </mxCell>
        <mxCell id="m1Vat-lX78rlXvC73KTk-102" value="" style="shape=partialRectangle;html=1;whiteSpace=wrap;connectable=0;fillColor=none;top=0;left=0;bottom=0;right=0;align=left;spacingLeft=6;overflow=hidden;strokeColor=inherit;fontSize=16;" parent="m1Vat-lX78rlXvC73KTk-100" vertex="1">
          <mxGeometry x="40" width="140" height="30" as="geometry">
            <mxRectangle width="140" height="30" as="alternateBounds" />
          </mxGeometry>
        </mxCell>
        <mxCell id="m1Vat-lX78rlXvC73KTk-103" value="" style="endArrow=block;endSize=10;endFill=0;shadow=0;strokeWidth=1;rounded=0;edgeStyle=elbowEdgeStyle;elbow=vertical;entryX=0.5;entryY=0;entryDx=0;entryDy=0;exitX=0.5;exitY=1;exitDx=0;exitDy=0;" parent="WIyWlLk6GJQsqaUBKTNV-1" source="m1Vat-lX78rlXvC73KTk-10" target="m1Vat-lX78rlXvC73KTk-0" edge="1">
          <mxGeometry width="160" relative="1" as="geometry">
            <mxPoint x="377" y="545" as="sourcePoint" />
            <mxPoint x="130" y="595" as="targetPoint" />
            <Array as="points">
              <mxPoint x="307" y="545" />
              <mxPoint x="307" y="545" />
              <mxPoint x="167" y="505" />
              <mxPoint x="177" y="455" />
              <mxPoint x="177" y="455" />
            </Array>
          </mxGeometry>
        </mxCell>
        <mxCell id="m1Vat-lX78rlXvC73KTk-104" value="&lt;b&gt;&lt;font color=&quot;#000000&quot;&gt;SPX Metrics&lt;/font&gt;&lt;/b&gt;" style="shape=umlFrame;whiteSpace=wrap;html=1;pointerEvents=0;strokeColor=#CCCCCC;fontSize=10;fontColor=#666666;width=80;height=30;" parent="WIyWlLk6GJQsqaUBKTNV-1" vertex="1">
          <mxGeometry x="50" y="30" width="640" height="190" as="geometry" />
        </mxCell>
        <mxCell id="m1Vat-lX78rlXvC73KTk-105" value="&lt;b&gt;&lt;font color=&quot;#000000&quot;&gt;Risk Metrics&lt;/font&gt;&lt;/b&gt;" style="shape=umlFrame;whiteSpace=wrap;html=1;pointerEvents=0;strokeColor=#CCCCCC;fontSize=10;fontColor=#666666;width=80;height=30;" parent="WIyWlLk6GJQsqaUBKTNV-1" vertex="1">
          <mxGeometry x="-180" y="180" width="220" height="490" as="geometry" />
        </mxCell>
        <mxCell id="m1Vat-lX78rlXvC73KTk-106" value="&lt;b&gt;&lt;font color=&quot;#000000&quot;&gt;Controls Metrics&lt;/font&gt;&lt;/b&gt;" style="shape=umlFrame;whiteSpace=wrap;html=1;pointerEvents=0;strokeColor=#CCCCCC;fontSize=10;fontColor=#666666;width=90;height=30;" parent="WIyWlLk6GJQsqaUBKTNV-1" vertex="1">
          <mxGeometry x="700" y="180" width="220" height="490" as="geometry" />
        </mxCell>
        <mxCell id="m1Vat-lX78rlXvC73KTk-107" value="" style="endArrow=block;endSize=10;endFill=0;shadow=0;strokeWidth=1;rounded=0;edgeStyle=elbowEdgeStyle;elbow=vertical;entryX=0.5;entryY=0;entryDx=0;entryDy=0;" parent="WIyWlLk6GJQsqaUBKTNV-1" target="m1Vat-lX78rlXvC73KTk-10" edge="1">
          <mxGeometry width="160" relative="1" as="geometry">
            <mxPoint x="373" y="200" as="sourcePoint" />
            <mxPoint x="383" y="390" as="targetPoint" />
            <Array as="points">
              <mxPoint x="380" y="270" />
              <mxPoint x="560" y="340" />
              <mxPoint x="560" y="340" />
              <mxPoint x="420" y="300" />
              <mxPoint x="430" y="250" />
              <mxPoint x="430" y="250" />
            </Array>
          </mxGeometry>
        </mxCell>
        <mxCell id="m1Vat-lX78rlXvC73KTk-109" value="" style="endArrow=block;endSize=10;endFill=0;shadow=0;strokeWidth=1;rounded=0;edgeStyle=elbowEdgeStyle;elbow=horizontal;entryX=0;entryY=0.5;entryDx=0;entryDy=0;" parent="WIyWlLk6GJQsqaUBKTNV-1" target="m1Vat-lX78rlXvC73KTk-10" edge="1">
          <mxGeometry width="160" relative="1" as="geometry">
            <mxPoint x="20" y="280" as="sourcePoint" />
            <mxPoint x="190" y="430" as="targetPoint" />
            <Array as="points">
              <mxPoint x="110" y="330" />
              <mxPoint x="130" y="285" />
              <mxPoint x="130" y="360" />
              <mxPoint x="20" y="450" />
              <mxPoint x="50" y="290" />
              <mxPoint x="130" y="340" />
              <mxPoint x="140" y="280" />
              <mxPoint x="470" y="280" />
              <mxPoint x="680" y="290" />
              <mxPoint x="630" y="280" />
              <mxPoint x="700" y="280" />
              <mxPoint x="610" y="280" />
              <mxPoint x="400" y="290" />
              <mxPoint x="570" y="350" />
              <mxPoint x="570" y="350" />
              <mxPoint x="430" y="310" />
              <mxPoint x="440" y="260" />
              <mxPoint x="440" y="260" />
            </Array>
          </mxGeometry>
        </mxCell>
        <mxCell id="m1Vat-lX78rlXvC73KTk-110" value="" style="endArrow=block;endSize=10;endFill=0;shadow=0;strokeWidth=1;rounded=0;edgeStyle=elbowEdgeStyle;elbow=horizontal;exitX=1;exitY=0.5;exitDx=0;exitDy=0;entryX=0;entryY=0.5;entryDx=0;entryDy=0;" parent="WIyWlLk6GJQsqaUBKTNV-1" source="m1Vat-lX78rlXvC73KTk-57" target="m1Vat-lX78rlXvC73KTk-10" edge="1">
          <mxGeometry width="160" relative="1" as="geometry">
            <mxPoint x="30" y="265" as="sourcePoint" />
            <mxPoint x="230" y="320" as="targetPoint" />
            <Array as="points">
              <mxPoint x="30" y="460" />
              <mxPoint x="80" y="450" />
              <mxPoint x="130" y="450" />
              <mxPoint x="70" y="420" />
              <mxPoint x="130" y="440" />
              <mxPoint x="160" y="390" />
              <mxPoint x="90" y="440" />
              <mxPoint x="50" y="440" />
              <mxPoint x="180" y="380" />
              <mxPoint x="110" y="350" />
              <mxPoint x="40" y="430" />
              <mxPoint x="40" y="390" />
              <mxPoint x="60" y="350" />
              <mxPoint x="180" y="320" />
              <mxPoint x="220" y="280" />
              <mxPoint x="480" y="290" />
              <mxPoint x="690" y="300" />
              <mxPoint x="640" y="290" />
              <mxPoint x="710" y="290" />
              <mxPoint x="620" y="290" />
              <mxPoint x="410" y="300" />
              <mxPoint x="580" y="360" />
              <mxPoint x="580" y="360" />
              <mxPoint x="440" y="320" />
              <mxPoint x="450" y="270" />
              <mxPoint x="450" y="270" />
            </Array>
          </mxGeometry>
        </mxCell>
        <mxCell id="m1Vat-lX78rlXvC73KTk-118" value="" style="endArrow=block;endSize=10;endFill=0;shadow=0;strokeWidth=1;rounded=0;edgeStyle=elbowEdgeStyle;elbow=horizontal;entryX=0;entryY=0.5;entryDx=0;entryDy=0;exitX=1;exitY=0.5;exitDx=0;exitDy=0;" parent="WIyWlLk6GJQsqaUBKTNV-1" source="m1Vat-lX78rlXvC73KTk-67" target="m1Vat-lX78rlXvC73KTk-10" edge="1">
          <mxGeometry width="160" relative="1" as="geometry">
            <mxPoint x="30" y="470" as="sourcePoint" />
            <mxPoint x="250" y="645" as="targetPoint" />
            <Array as="points">
              <mxPoint x="110" y="510" />
              <mxPoint x="120" y="520" />
              <mxPoint x="140" y="475" />
              <mxPoint x="140" y="550" />
              <mxPoint x="30" y="640" />
              <mxPoint x="60" y="480" />
              <mxPoint x="140" y="530" />
              <mxPoint x="150" y="470" />
              <mxPoint x="480" y="470" />
              <mxPoint x="690" y="480" />
              <mxPoint x="640" y="470" />
              <mxPoint x="710" y="470" />
              <mxPoint x="620" y="470" />
              <mxPoint x="410" y="480" />
              <mxPoint x="580" y="540" />
              <mxPoint x="580" y="540" />
              <mxPoint x="440" y="500" />
              <mxPoint x="450" y="450" />
              <mxPoint x="450" y="450" />
            </Array>
          </mxGeometry>
        </mxCell>
        <mxCell id="m1Vat-lX78rlXvC73KTk-119" value="" style="endArrow=block;endSize=10;endFill=0;shadow=0;strokeWidth=1;rounded=0;edgeStyle=elbowEdgeStyle;elbow=horizontal;entryX=1;entryY=0.5;entryDx=0;entryDy=0;exitX=-0.008;exitY=0.75;exitDx=0;exitDy=0;exitPerimeter=0;" parent="WIyWlLk6GJQsqaUBKTNV-1" source="m1Vat-lX78rlXvC73KTk-74" target="m1Vat-lX78rlXvC73KTk-10" edge="1">
          <mxGeometry width="160" relative="1" as="geometry">
            <mxPoint x="520" y="317.5" as="sourcePoint" />
            <mxPoint x="740" y="492.5" as="targetPoint" />
            <Array as="points">
              <mxPoint x="630" y="370" />
              <mxPoint x="630" y="322.5" />
              <mxPoint x="630" y="397.5" />
              <mxPoint x="520" y="487.5" />
              <mxPoint x="550" y="327.5" />
              <mxPoint x="630" y="377.5" />
              <mxPoint x="640" y="317.5" />
              <mxPoint x="970" y="317.5" />
              <mxPoint x="1180" y="327.5" />
              <mxPoint x="1130" y="317.5" />
              <mxPoint x="1200" y="317.5" />
              <mxPoint x="1110" y="317.5" />
              <mxPoint x="900" y="327.5" />
              <mxPoint x="1070" y="387.5" />
              <mxPoint x="1070" y="387.5" />
              <mxPoint x="930" y="347.5" />
              <mxPoint x="940" y="297.5" />
              <mxPoint x="940" y="297.5" />
            </Array>
          </mxGeometry>
        </mxCell>
        <mxCell id="m1Vat-lX78rlXvC73KTk-120" value="" style="endArrow=block;endSize=10;endFill=0;shadow=0;strokeWidth=1;rounded=0;edgeStyle=elbowEdgeStyle;elbow=horizontal;entryX=1;entryY=0.5;entryDx=0;entryDy=0;exitX=0;exitY=0.5;exitDx=0;exitDy=0;" parent="WIyWlLk6GJQsqaUBKTNV-1" source="m1Vat-lX78rlXvC73KTk-87" target="m1Vat-lX78rlXvC73KTk-10" edge="1">
          <mxGeometry width="160" relative="1" as="geometry">
            <mxPoint x="731" y="288" as="sourcePoint" />
            <mxPoint x="515" y="465" as="targetPoint" />
            <Array as="points">
              <mxPoint x="640" y="380" />
              <mxPoint x="640" y="332.5" />
              <mxPoint x="640" y="407.5" />
              <mxPoint x="530" y="497.5" />
              <mxPoint x="560" y="337.5" />
              <mxPoint x="640" y="387.5" />
              <mxPoint x="650" y="327.5" />
              <mxPoint x="980" y="327.5" />
              <mxPoint x="1190" y="337.5" />
              <mxPoint x="1140" y="327.5" />
              <mxPoint x="1210" y="327.5" />
              <mxPoint x="1120" y="327.5" />
              <mxPoint x="910" y="337.5" />
              <mxPoint x="1080" y="397.5" />
              <mxPoint x="1080" y="397.5" />
              <mxPoint x="940" y="357.5" />
              <mxPoint x="950" y="307.5" />
              <mxPoint x="950" y="307.5" />
            </Array>
          </mxGeometry>
        </mxCell>
        <mxCell id="m1Vat-lX78rlXvC73KTk-121" value="" style="endArrow=block;endSize=10;endFill=0;shadow=0;strokeWidth=1;rounded=0;edgeStyle=elbowEdgeStyle;elbow=horizontal;entryX=1;entryY=0.5;entryDx=0;entryDy=0;exitX=0;exitY=0.5;exitDx=0;exitDy=0;" parent="WIyWlLk6GJQsqaUBKTNV-1" source="m1Vat-lX78rlXvC73KTk-97" target="m1Vat-lX78rlXvC73KTk-10" edge="1">
          <mxGeometry width="160" relative="1" as="geometry">
            <mxPoint x="729" y="293" as="sourcePoint" />
            <mxPoint x="515" y="465" as="targetPoint" />
            <Array as="points">
              <mxPoint x="630" y="520" />
              <mxPoint x="640" y="380" />
              <mxPoint x="640" y="332.5" />
              <mxPoint x="640" y="407.5" />
              <mxPoint x="530" y="497.5" />
              <mxPoint x="560" y="337.5" />
              <mxPoint x="640" y="387.5" />
              <mxPoint x="650" y="327.5" />
              <mxPoint x="980" y="327.5" />
              <mxPoint x="1190" y="337.5" />
              <mxPoint x="1140" y="327.5" />
              <mxPoint x="1210" y="327.5" />
              <mxPoint x="1120" y="327.5" />
              <mxPoint x="910" y="337.5" />
              <mxPoint x="1080" y="397.5" />
              <mxPoint x="1080" y="397.5" />
              <mxPoint x="940" y="357.5" />
              <mxPoint x="950" y="307.5" />
              <mxPoint x="950" y="307.5" />
            </Array>
          </mxGeometry>
        </mxCell>
        <mxCell id="m1Vat-lX78rlXvC73KTk-122" value="" style="shape=image;html=1;verticalAlign=top;verticalLabelPosition=bottom;labelBackgroundColor=#ffffff;imageAspect=0;aspect=fixed;image=https://cdn1.iconfinder.com/data/icons/heroicons-ui/24/dots-horizontal-128.png;strokeColor=#CCCCCC;fontSize=10;fontColor=#000000;" parent="WIyWlLk6GJQsqaUBKTNV-1" vertex="1">
          <mxGeometry x="120" y="177" width="21" height="21" as="geometry" />
        </mxCell>
        <mxCell id="m1Vat-lX78rlXvC73KTk-123" value="" style="shape=image;html=1;verticalAlign=top;verticalLabelPosition=bottom;labelBackgroundColor=#ffffff;imageAspect=0;aspect=fixed;image=https://cdn1.iconfinder.com/data/icons/heroicons-ui/24/dots-horizontal-128.png;strokeColor=#CCCCCC;fontSize=10;fontColor=#000000;" parent="WIyWlLk6GJQsqaUBKTNV-1" vertex="1">
          <mxGeometry x="330" y="177" width="21" height="21" as="geometry" />
        </mxCell>
        <mxCell id="m1Vat-lX78rlXvC73KTk-124" value="" style="shape=image;html=1;verticalAlign=top;verticalLabelPosition=bottom;labelBackgroundColor=#ffffff;imageAspect=0;aspect=fixed;image=https://cdn1.iconfinder.com/data/icons/heroicons-ui/24/dots-horizontal-128.png;strokeColor=#CCCCCC;fontSize=10;fontColor=#000000;" parent="WIyWlLk6GJQsqaUBKTNV-1" vertex="1">
          <mxGeometry x="540" y="177" width="21" height="21" as="geometry" />
        </mxCell>
        <mxCell id="m1Vat-lX78rlXvC73KTk-125" value="" style="shape=image;html=1;verticalAlign=top;verticalLabelPosition=bottom;labelBackgroundColor=#ffffff;imageAspect=0;aspect=fixed;image=https://cdn1.iconfinder.com/data/icons/heroicons-ui/24/dots-horizontal-128.png;strokeColor=#CCCCCC;fontSize=10;fontColor=#000000;" parent="WIyWlLk6GJQsqaUBKTNV-1" vertex="1">
          <mxGeometry x="-110" y="326" width="21" height="21" as="geometry" />
        </mxCell>
        <mxCell id="m1Vat-lX78rlXvC73KTk-126" value="" style="shape=image;html=1;verticalAlign=top;verticalLabelPosition=bottom;labelBackgroundColor=#ffffff;imageAspect=0;aspect=fixed;image=https://cdn1.iconfinder.com/data/icons/heroicons-ui/24/dots-horizontal-128.png;strokeColor=#CCCCCC;fontSize=10;fontColor=#000000;" parent="WIyWlLk6GJQsqaUBKTNV-1" vertex="1">
          <mxGeometry x="-110" y="476" width="21" height="21" as="geometry" />
        </mxCell>
        <mxCell id="m1Vat-lX78rlXvC73KTk-127" value="" style="shape=image;html=1;verticalAlign=top;verticalLabelPosition=bottom;labelBackgroundColor=#ffffff;imageAspect=0;aspect=fixed;image=https://cdn1.iconfinder.com/data/icons/heroicons-ui/24/dots-horizontal-128.png;strokeColor=#CCCCCC;fontSize=10;fontColor=#000000;" parent="WIyWlLk6GJQsqaUBKTNV-1" vertex="1">
          <mxGeometry x="-110" y="626" width="21" height="21" as="geometry" />
        </mxCell>
        <mxCell id="m1Vat-lX78rlXvC73KTk-128" value="" style="shape=image;html=1;verticalAlign=top;verticalLabelPosition=bottom;labelBackgroundColor=#ffffff;imageAspect=0;aspect=fixed;image=https://cdn1.iconfinder.com/data/icons/heroicons-ui/24/dots-horizontal-128.png;strokeColor=#CCCCCC;fontSize=10;fontColor=#000000;" parent="WIyWlLk6GJQsqaUBKTNV-1" vertex="1">
          <mxGeometry x="770" y="326" width="21" height="21" as="geometry" />
        </mxCell>
        <mxCell id="m1Vat-lX78rlXvC73KTk-129" value="" style="shape=image;html=1;verticalAlign=top;verticalLabelPosition=bottom;labelBackgroundColor=#ffffff;imageAspect=0;aspect=fixed;image=https://cdn1.iconfinder.com/data/icons/heroicons-ui/24/dots-horizontal-128.png;strokeColor=#CCCCCC;fontSize=10;fontColor=#000000;" parent="WIyWlLk6GJQsqaUBKTNV-1" vertex="1">
          <mxGeometry x="770" y="476" width="21" height="21" as="geometry" />
        </mxCell>
        <mxCell id="m1Vat-lX78rlXvC73KTk-130" value="" style="shape=image;html=1;verticalAlign=top;verticalLabelPosition=bottom;labelBackgroundColor=#ffffff;imageAspect=0;aspect=fixed;image=https://cdn1.iconfinder.com/data/icons/heroicons-ui/24/dots-horizontal-128.png;strokeColor=#CCCCCC;fontSize=10;fontColor=#000000;" parent="WIyWlLk6GJQsqaUBKTNV-1" vertex="1">
          <mxGeometry x="770" y="626" width="21" height="21" as="geometry" />
        </mxCell>
        <mxCell id="m1Vat-lX78rlXvC73KTk-175" value="" style="shape=image;html=1;verticalAlign=top;verticalLabelPosition=bottom;labelBackgroundColor=#ffffff;imageAspect=0;aspect=fixed;image=https://cdn1.iconfinder.com/data/icons/heroicons-ui/24/dots-horizontal-128.png;strokeColor=#CCCCCC;fontSize=10;fontColor=#000000;" parent="WIyWlLk6GJQsqaUBKTNV-1" vertex="1">
          <mxGeometry x="290" y="509" width="21" height="21" as="geometry" />
        </mxCell>
      </root>
    </mxGraphModel>
  </diagram>
</mxfile>
